<svg xmlns="http://www.w3.org/2000/svg" xmlns:xlink="http://www.w3.org/1999/xlink" xmlns:lucid="lucid" width="3961.35" height="1695.26"><g transform="translate(-4655.218490524602 -432.9427693424924)" lucid:page-tab-id="0_0"><path d="M3613.73 0h5484.6v2581.67h-5484.6z" fill="#fff"/><path d="M6055.26 1292.87v129.84h179.1v-129.83z" stroke="#5e5e5e" stroke-width="3" fill-opacity="0"/><path d="M6167.2 1292.87c0 8.97-10.03 16.23-22.4 16.23-12.36 0-22.38-7.26-22.38-16.23M6234.35 1301.53h22.4m-223.87 0h22.38m179.1 17.3h22.38m-223.86 0h22.38m179.1 17.32h22.38m-223.86 0h22.38m179.1 17.3h22.38m-223.86 0h22.38m179.1 17.32h22.38m-223.86 0h22.38m179.1 17.3h22.38m-223.86 0h22.38m179.1 17.33h22.38m-223.86 0h22.38m179.1 17.3h22.38" stroke="#5e5e5e" stroke-width="3" fill-opacity="0"/><use xlink:href="#a" transform="matrix(1,0,0,1,6032.877312526795,1325.3321992897122) translate(77.4320987654321 18.555555555555557)"/><use xlink:href="#b" transform="matrix(1,0,0,1,6066.4564476324995,1293.4153116084317) translate(6.561728395061728 14.222222222222223)"/><use xlink:href="#c" transform="matrix(1,0,0,1,6066.4564476324995,1310.7261659440414) translate(6.561728395061728 14.222222222222223)"/><use xlink:href="#d" transform="matrix(1,0,0,1,6066.4564476324995,1328.0370202796512) translate(6.561728395061728 14.222222222222223)"/><use xlink:href="#e" transform="matrix(1,0,0,1,6066.4564476324995,1345.3478746152612) translate(6.561728395061728 14.222222222222223)"/><use xlink:href="#f" transform="matrix(1,0,0,1,6066.4564476324995,1362.658728950871) translate(6.561728395061728 14.222222222222223)"/><use xlink:href="#g" transform="matrix(1,0,0,1,6066.4564476324995,1379.9695832864809) translate(6.561728395061728 14.222222222222223)"/><use xlink:href="#h" transform="matrix(1,0,0,1,6066.4564476324995,1397.2804376220906) translate(6.561728395061728 14.222222222222223)"/><use xlink:href="#i" transform="matrix(1,0,0,1,6200.772988055314,1414.5912919577004) translate(6.561728395061728 14.222222222222223)"/><use xlink:href="#j" transform="matrix(1,0,0,1,6200.772988055314,1397.2804376220906) translate(6.561728395061728 14.222222222222223)"/><use xlink:href="#k" transform="matrix(1,0,0,1,6200.772988055314,1379.9695832864809) translate(1.6234567901234556 14.222222222222223)"/><use xlink:href="#l" transform="matrix(1,0,0,1,6200.772988055314,1362.658728950871) translate(2.2901234567901234 14.222222222222223)"/><use xlink:href="#m" transform="matrix(1,0,0,1,6200.772988055314,1345.3478746152612) translate(1.6234567901234556 14.222222222222223)"/><use xlink:href="#n" transform="matrix(1,0,0,1,6200.772988055314,1328.0370202796512) translate(1.6234567901234556 14.222222222222223)"/><use xlink:href="#o" transform="matrix(1,0,0,1,6200.772988055314,1310.7261659440414) translate(1.6234567901234556 14.222222222222223)"/><use xlink:href="#p" transform="matrix(1,0,0,1,6200.772988055314,1293.4153116084317) translate(1.6234567901234556 14.222222222222223)"/><path d="M6055.8 1295.65a6 6 0 0 1 6-6h167.44a6 6 0 0 1 6 6v123.28a6 6 0 0 1-6 6H6061.8a6 6 0 0 1-6-6z" stroke="#5e5e5e" stroke-width="3" fill="#fff"/><use xlink:href="#a" transform="matrix(1,0,0,1,6060.796985063225,1294.6538483576433) translate(50.432098765432094 14.222222222222223)"/><g class="lucid-layer" lucid:layer-id="nBgb3SvtIIet" display="block"><path d="M4696.55 859.6a6 6 0 0 1 6-6h148.65a6 6 0 0 0 6-6V829a2.3 2.3 0 0 1 4-1.55l47.1 52.3a6.67 6.67 0 0 1 0 8.93L4861.2 941a2.3 2.3 0 0 1-4-1.54v-18.62a6 6 0 0 0-6-6h-148.65a6 6 0 0 1-6-6z" stroke="#5e5e5e" stroke-width="3" fill="#fff"/><use xlink:href="#q" transform="matrix(1,0,0,1,4701.545172021012,827.9867333287493) translate(3.999999999999986 66.27777777777777)"/><path d="M4675.22 1388.47a6 6 0 0 1 6-6h171.97a6 6 0 0 0 6-6v-17.52a2.3 2.3 0 0 1 4-1.54l45.1 50.12a6.67 6.67 0 0 1 0 8.92l-45.1 50.1a2.3 2.3 0 0 1-4-1.53v-17.5a6 6 0 0 0-6-6H4681.2a6 6 0 0 1-6-6z" stroke="#5e5e5e" stroke-width="3" fill="#fff"/><use xlink:href="#r" transform="matrix(1,0,0,1,4680.218490524602,1357.955140952863) translate(35.16666666666666 63.12111111111112)"/><path d="M8228.92 857.84a6 6 0 0 1 6-6h277.66a6 6 0 0 0 6-6V829a2.3 2.3 0 0 1 4.02-1.55l43.9 48.77a6.67 6.67 0 0 1 0 8.92l-43.9 48.78a2.3 2.3 0 0 1-4.02-1.54v-16.85a6 6 0 0 0-6-6h-277.66a6 6 0 0 1-6-6z" stroke="#5e5e5e" stroke-width="3" fill="#fff"/><use xlink:href="#s" transform="matrix(1,0,0,1,8233.923020703842,827.9867333287492) translate(24.154320987654273 62.77777777777778)"/><path d="M8235.16 1392.28a6 6 0 0 1 6-6h303.15a6 6 0 0 0 6-6v-13.7a2.3 2.3 0 0 1 4.02-1.54l38.24 42.48a6.67 6.67 0 0 1 0 8.92l-38.24 42.5a2.3 2.3 0 0 1-4-1.55v-13.72a6 6 0 0 0-6-6h-303.16a6 6 0 0 1-6-6z" stroke="#5e5e5e" stroke-width="3" fill="#fff"/><use xlink:href="#t" transform="matrix(1,0,0,1,8240.162454655923,1365.5765916661896) translate(52.555555555555515 56.27777777777778)"/><path d="M8228.92 1919.34a6 6 0 0 1 6-6h286.43a6 6 0 0 0 6-6v-15.76a2.3 2.3 0 0 1 4.02-1.54l41.93 46.6a6.67 6.67 0 0 1 0 8.9l-41.93 46.6a2.3 2.3 0 0 1-4.02-1.54v-15.75a6 6 0 0 0-6-6h-286.43a6 6 0 0 1-6-6z" stroke="#5e5e5e" stroke-width="3" fill="#fff"/><use xlink:href="#u" transform="matrix(1,0,0,1,8233.923020703842,1890.5841304216162) translate(38.586419753086375 60.77777777777778)"/><path d="M5243.97 618.47v1324.2h2653.3V618.48z" stroke="#5e5e5e" stroke-width="3" fill-opacity="0"/><path d="M6902.28 618.47c0 91.42-148.5 165.52-331.66 165.52-183.18 0-331.67-74.1-331.67-165.53M7897.26 883.3h331.66m-3316.6 0h331.65m2653.3 529.7h331.65m-3316.6 0h331.65m2653.3 529.68h331.65" stroke="#5e5e5e" stroke-width="3" fill-opacity="0"/><use xlink:href="#v" transform="matrix(1,0,0,1,4912.308753687827,949.5217098346617) translate(1583.8086419753085 39.111111111111114)"/><use xlink:href="#w" transform="matrix(1,0,0,1,5409.80089374023,800.548027687011) translate(152.41975308641975 92.77777777777777)"/><use xlink:href="#x" transform="matrix(1,0,0,1,5409.80089374023,1330.2322308786584) translate(152.41975308641975 92.77777777777777)"/><use xlink:href="#y" transform="matrix(1,0,0,1,7399.769453949839,1859.9164340703055) translate(152.41975308641975 92.77777777777777)"/><use xlink:href="#z" transform="matrix(1,0,0,1,7399.769453949839,1330.2322308786584) translate(152.41975308641975 92.77777777777777)"/><use xlink:href="#A" transform="matrix(1,0,0,1,7399.769453949839,800.548027687011) translate(152.41975308641975 92.77777777777777)"/><path d="M5245.6 630.48a6 6 0 0 1 6-6H7887a6 6 0 0 1 6 6v1305.54a6 6 0 0 1-6 6H5251.6a6 6 0 0 1-6-6z" stroke="#5e5e5e" stroke-width="3" fill="#fff"/><use xlink:href="#B" transform="matrix(1,0,0,1,5250.596318092156,629.4843080634265) translate(1292.4876543209878 661.5590277777778)"/></g><g class="lucid-layer" lucid:layer-id="On6aeOycemOr" display="block"><path d="M7178.45 1124.85v197.03h214.85v-197.04z" stroke="#5e5e5e" stroke-width="3" fill="#fff"/><path d="M7312.73 1124.85c0 13.6-12.02 24.63-26.85 24.63-14.84 0-26.86-11.03-26.86-24.63M7393.3 1164.25h26.86m-268.56 0h26.85m214.85 78.82h26.86m-268.56 0h26.85m214.85 78.8h26.86" stroke="#5e5e5e" stroke-width="3" fill="#fff"/><use xlink:href="#C" transform="matrix(1,0,0,1,7151.594938977655,1174.1039419211882) translate(106.77777777777779 15.999999999999995)"/><use xlink:href="#D" transform="matrix(1,0,0,1,7191.879468729714,1151.937500171096) translate(7.944444444444446 15.999999999999995)"/><use xlink:href="#E" transform="matrix(1,0,0,1,7191.879468729714,1230.7515152825347) translate(7.944444444444446 15.999999999999995)"/><use xlink:href="#F" transform="matrix(1,0,0,1,7353.017587737951,1309.5655303939734) translate(7.944444444444446 15.999999999999995)"/><use xlink:href="#G" transform="matrix(1,0,0,1,7353.017587737951,1230.7515152825347) translate(7.944444444444446 15.999999999999995)"/><use xlink:href="#H" transform="matrix(1,0,0,1,7353.017587737951,1151.937500171096) translate(7.944444444444446 15.999999999999995)"/><path d="M7044.53 1153.4a6 6 0 0 1 6-6h63.07a6 6 0 0 0 6-6v-5.78a2.3 2.3 0 0 1 4-1.54l23.98 26.63a6.67 6.67 0 0 1 0 8.93l-23.97 26.63a2.3 2.3 0 0 1-4-1.54v-5.77a6 6 0 0 0-6-6h-63.07a6 6 0 0 1-6-6z" stroke="#5e5e5e" stroke-width="3" fill="#fff"/><use xlink:href="#I" transform="matrix(1,0,0,1,7049.531570950616,1134.6156636625483) translate(24.91666666666667 35.69444444444444)"/><path d="M7044.53 1231.26a6 6 0 0 1 6-6h63.07a6 6 0 0 0 6-6v-5.78a2.3 2.3 0 0 1 4-1.54l23.98 26.63a6.67 6.67 0 0 1 0 8.92l-23.97 26.63a2.3 2.3 0 0 1-4-1.54v-5.8a6 6 0 0 0-6-6h-63.07a6 6 0 0 1-6-6z" stroke="#5e5e5e" stroke-width="3" fill="#fff"/><use xlink:href="#J" transform="matrix(1,0,0,1,7049.531570950616,1212.4796093006319) translate(4.845679012345691 35.69444444444444)"/><path d="M7527.22 1176.95a6 6 0 0 1-6 6h-63.06a6 6 0 0 0-6 6v5.77a2.3 2.3 0 0 1-4.02 1.54l-23.97-26.63a6.67 6.67 0 0 1 0-8.92l23.97-26.62a2.3 2.3 0 0 1 4.02 1.54v5.77a6 6 0 0 0 6 6h63.06a6 6 0 0 1 6 6z" stroke="#5e5e5e" stroke-width="3" fill="#fff"/><use xlink:href="#K" transform="matrix(1,-2.4492935982947064e-16,2.4492935982947064e-16,1,7425.15847065805,1134.6156636625483) translate(11.727222222222226 35.69444444444444)"/><path d="M7527.22 1254.8a6 6 0 0 1-6 6h-63.06a6 6 0 0 0-6 6v5.8a2.3 2.3 0 0 1-4.02 1.53l-23.97-26.64a6.67 6.67 0 0 1 0-8.93l23.97-26.63a2.3 2.3 0 0 1 4.02 1.54v5.78a6 6 0 0 0 6 6h63.06a6 6 0 0 1 6 6z" stroke="#5e5e5e" stroke-width="3" fill="#fff"/><use xlink:href="#L" transform="matrix(1,-2.4492935982947064e-16,2.4492935982947064e-16,1,7425.15847065805,1212.479609300632) translate(5.872283950617289 35.69444444444444)"/><path d="M7420.16 1309.12a6 6 0 0 1 6-6h63.06a6 6 0 0 0 6-6v-5.78a2.3 2.3 0 0 1 4.02-1.54l23.97 26.64a6.67 6.67 0 0 1 0 8.92l-23.96 26.63a2.3 2.3 0 0 1-4.02-1.55v-5.78a6 6 0 0 0-6-6h-63.06a6 6 0 0 1-6-6z" stroke="#5e5e5e" stroke-width="3" fill="#fff"/><use xlink:href="#M" transform="matrix(1,0,0,1,7425.15847065805,1290.3435549387173) translate(0.7407407407407476 35.69444444444444)"/><path d="M6168.22 1036.2v328.25h539.4V1036.2z" stroke="#5e5e5e" stroke-width="3" fill="#fff"/><path d="M6505.35 1036.2c0 22.67-30.2 41.04-67.43 41.04-37.23 0-67.42-18.37-67.42-41.03M6707.63 1077.24h67.43m-674.27 0h67.42m539.4 82.06h67.44m-674.27 0h67.42m539.4 82.06h67.44m-674.27 0h67.42m539.4 82.06h67.44m-674.27 0h67.42" stroke="#5e5e5e" stroke-width="3" fill="#fff"/><use xlink:href="#D" transform="matrix(1,0,0,1,6201.930532498704,1056.7231788005404) translate(28.444444444444446 15.999999999999995)"/><use xlink:href="#E" transform="matrix(1,0,0,1,6201.930532498704,1138.7849795567652) translate(28.444444444444446 15.999999999999995)"/><use xlink:href="#F" transform="matrix(1,0,0,1,6201.930532498704,1220.84678031299) translate(28.444444444444446 15.999999999999995)"/><use xlink:href="#G" transform="matrix(1,0,0,1,6201.930532498704,1302.9085810692147) translate(28.444444444444446 15.999999999999995)"/><use xlink:href="#H" transform="matrix(1,0,0,1,6606.489392298931,1302.9085810692147) translate(28.444444444444446 15.999999999999995)"/><use xlink:href="#N" transform="matrix(1,0,0,1,6606.489392298931,1220.84678031299) translate(28.444444444444446 15.999999999999995)"/><use xlink:href="#O" transform="matrix(1,0,0,1,6606.489392298931,1138.7849795567652) translate(28.444444444444446 15.999999999999995)"/><use xlink:href="#P" transform="matrix(1,0,0,1,6606.489392298931,1056.7231788005404) translate(28.444444444444446 15.999999999999995)"/><path d="M6775.06 1322.18a6 6 0 0 1 6-6h56.6a4.43 4.43 0 0 0 4.43-4.42 1.7 1.7 0 0 1 2.95-1.14l8.96 9.96a6.67 6.67 0 0 1 0 8.92l-8.95 9.96a1.7 1.7 0 0 1-2.96-1.14 4.43 4.43 0 0 0-4.44-4.42h-56.6a6 6 0 0 1-6-6z" stroke="#5e5e5e" stroke-width="3" fill="#fff"/><use xlink:href="#Q" transform="matrix(1,0,0,1,6780.055583882359,1312.3284458689632) translate(14.916666666666671 16.11111111111111)"/><path d="M6017.82 1322.18a6 6 0 0 1 6-6h56.6a4.43 4.43 0 0 0 4.43-4.42 1.7 1.7 0 0 1 2.96-1.14l8.98 9.96a6.67 6.67 0 0 1 0 8.92l-8.97 9.96a1.7 1.7 0 0 1-2.95-1.14 4.43 4.43 0 0 0-4.43-4.42h-56.6a6 6 0 0 1-6-6z" stroke="#5e5e5e" stroke-width="3" fill="#fff"/><use xlink:href="#R" transform="matrix(1,0,0,1,6022.819870189094,1312.3284458689632) translate(10.595679012345684 16.11111111111111)"/><path d="M6017.82 1072.47a6 6 0 0 1 6-6h56.6a4.43 4.43 0 0 0 4.43-4.43 1.7 1.7 0 0 1 2.96-1.13l8.98 9.97a6.67 6.67 0 0 1 0 8.92l-8.97 9.95a1.7 1.7 0 0 1-2.95-1.14 4.43 4.43 0 0 0-4.43-4.42h-56.6a6 6 0 0 1-6-6z" stroke="#5e5e5e" stroke-width="3" fill="#fff"/><use xlink:href="#I" transform="matrix(1,0,0,1,6022.819870189094,1062.6162589581802) translate(14.916666666666671 16.11111111111111)"/><path d="M6017.82 1155.46a6 6 0 0 1 6-6h56.6a4.43 4.43 0 0 0 4.43-4.43 1.7 1.7 0 0 1 2.96-1.13l8.98 9.96a6.67 6.67 0 0 1 0 8.92l-8.97 9.96a1.7 1.7 0 0 1-2.95-1.14 4.43 4.43 0 0 0-4.43-4.43h-56.6a6 6 0 0 1-6-6z" stroke="#5e5e5e" stroke-width="3" fill="#fff"/><use xlink:href="#S" transform="matrix(1,0,0,1,6022.819870189094,1145.6055650707744) translate(5.0000000000000036 16.11111111111111)"/><path d="M6775.06 1236.57a6 6 0 0 1 6-6h56.6a4.43 4.43 0 0 0 4.43-4.43 1.7 1.7 0 0 1 2.95-1.13l8.96 9.97a6.67 6.67 0 0 1 0 8.92l-8.95 9.95a1.7 1.7 0 0 1-2.96-1.14 4.43 4.43 0 0 0-4.44-4.42h-56.6a6 6 0 0 1-6-6z" stroke="#5e5e5e" stroke-width="3" fill="#fff"/><use xlink:href="#J" transform="matrix(1,0,0,1,6780.055583882359,1226.7139935672003) translate(-5.154320987654309 16.11111111111111)"/><path d="M6775.06 1155.46a6 6 0 0 1 6-6h56.6a4.43 4.43 0 0 0 4.43-4.43 1.7 1.7 0 0 1 2.95-1.13l8.96 9.96a6.67 6.67 0 0 1 0 8.92l-8.95 9.96a1.7 1.7 0 0 1-2.96-1.14 4.43 4.43 0 0 0-4.44-4.43h-56.6a6 6 0 0 1-6-6z" stroke="#5e5e5e" stroke-width="3" fill="#fff"/><use xlink:href="#T" transform="matrix(1,0,0,1,6780.055583882359,1145.6055650707744) translate(-7.509259259259252 16.11111111111111)"/><path d="M6775.06 1074.35a6 6 0 0 1 6-6h56.6a4.43 4.43 0 0 0 4.43-4.42 1.7 1.7 0 0 1 2.95-1.14l8.96 9.95a6.67 6.67 0 0 1 0 8.92l-8.95 9.96a1.7 1.7 0 0 1-2.96-1.14 4.43 4.43 0 0 0-4.44-4.43h-56.6a6 6 0 0 1-6-6z" stroke="#5e5e5e" stroke-width="3" fill="#fff"/><use xlink:href="#L" transform="matrix(1,0,0,1,6780.055583882359,1064.4971365743486) translate(-8.632716049382708 16.11111111111111)"/><path d="M6017.82 1238.45a6 6 0 0 1 6-6h56.6a4.43 4.43 0 0 0 4.43-4.43 1.7 1.7 0 0 1 2.96-1.13l8.98 9.95a6.67 6.67 0 0 1 0 8.92l-8.97 9.96a1.7 1.7 0 0 1-2.95-1.14 4.43 4.43 0 0 0-4.43-4.44h-56.6a6 6 0 0 1-6-6z" stroke="#5e5e5e" stroke-width="3" fill="#fff"/><use xlink:href="#M" transform="matrix(1,0,0,1,6022.819870189094,1228.5948711833685) translate(-9.259259259259252 16.11111111111111)"/><path d="M5602.06 1252.26v147.16h209.1v-147.16z" stroke="#5e5e5e" stroke-width="3" fill="#fff"/><path d="M5732.76 1252.26c0 10.15-11.7 18.4-26.14 18.4-14.44 0-26.14-8.25-26.14-18.4M5811.17 1325.84h26.14m-261.38 0h26.14" stroke="#5e5e5e" stroke-width="3" fill="#fff"/><use xlink:href="#D" transform="matrix(1,0,0,1,5615.129936442428,1316.6390038862282) translate(7.944444444444446 15.999999999999995)"/><use xlink:href="#E" transform="matrix(1,0,0,1,5771.964632986889,1316.6390038862282) translate(7.944444444444446 15.999999999999995)"/><path d="M5468.6 1316.53a6 6 0 0 1 6-6h67.77a6 6 0 0 0 6-6v-3.3a2.3 2.3 0 0 1 4-1.55l19.54 21.7a6.67 6.67 0 0 1 0 8.92l-19.52 21.7a2.3 2.3 0 0 1-4-1.55v-3.3a6 6 0 0 0-6-6h-67.77a6 6 0 0 1-6-6z" stroke="#5e5e5e" stroke-width="3" fill="#fff"/><use xlink:href="#Q" transform="matrix(1,0,0,1,5473.614531437328,1300.2222253593886) translate(25.41666666666667 28.694444444444443)"/><path d="M5837.3 1316.53a6 6 0 0 1 6-6h67.77a6 6 0 0 0 6-6v-3.3a2.3 2.3 0 0 1 4-1.55l19.53 21.7a6.67 6.67 0 0 1 0 8.92l-19.52 21.7a2.3 2.3 0 0 1-4-1.55v-3.3a6 6 0 0 0-6-6h-67.77a6 6 0 0 1-6-6z" stroke="#5e5e5e" stroke-width="3" fill="#fff"/><use xlink:href="#R" transform="matrix(1,0,0,1,5842.312423213748,1300.2222253593886) translate(21.095679012345684 28.694444444444443)"/><path d="M5944.82 1325.84h53.03" stroke="#5e5e5e" stroke-width="2" fill="none"/><path d="M5944.85 1326.84h-1.1l.07-1-.07-1h1.1z" stroke="#5e5e5e" stroke-width=".05" fill="#5e5e5e"/><path d="M6013.12 1325.84l-14.26 4.64v-9.27z" stroke="#5e5e5e" stroke-width="2" fill="#5e5e5e"/><path d="M6858.12 1326.33h25.48a6 6 0 0 1 6 6v198.37a6 6 0 0 1-6 6H5441.06a6 6 0 0 1-6-6v-198.37a6 6 0 0 1 6-6h7.6" stroke="#5e5e5e" stroke-width="2" fill="none"/><path d="M6858.15 1325.33v2h-1.25l.24-1.1.07-.9z" stroke="#5e5e5e" stroke-width=".05" fill="#5e5e5e"/><path d="M5463.92 1326.33l-14.27 4.64v-9.28z" stroke="#5e5e5e" stroke-width="2" fill="#5e5e5e"/><path d="M6858.23 1239.43h91.9l.02-.02h74.4" stroke="#5e5e5e" stroke-width="2" fill="none"/><path d="M6858.25 1240.43h-1.1l.08-1-.07-1h1.1z" stroke="#5e5e5e" stroke-width=".05" fill="#5e5e5e"/><path d="M7039.82 1239.4l-14.27 4.64v-9.27z" stroke="#5e5e5e" stroke-width="2" fill="#5e5e5e"/><path d="M6858.2 1076.76h33a6 6 0 0 0 6-6v-28a6 6 0 0 1 6-6h773.54a6 6 0 0 1 6 6V1239a6 6 0 0 1-6 6H7547.2" stroke="#5e5e5e" stroke-width="2" fill="none"/><path d="M6858.22 1077.76h-1.03l.03-.55-.1-1.18-.05-.26h1.14z" stroke="#5e5e5e" stroke-width=".05" fill="#5e5e5e"/><path d="M7531.93 1245l14.26-4.64v9.27z" stroke="#5e5e5e" stroke-width="2" fill="#5e5e5e"/><path d="M7527.42 1320.9h60.34a6 6 0 0 1 6 6v276.13a6 6 0 0 1-6 6H5990.24a6 6 0 0 1-6-6v-359.17a6 6 0 0 1 6-6h7.62" stroke="#5e5e5e" stroke-width="2" fill="none"/><path d="M7527.45 1321.9h-1.1l.07-1-.07-1h1.1z" stroke="#5e5e5e" stroke-width=".05" fill="#5e5e5e"/><path d="M6013.13 1237.86l-14.27 4.63v-9.28z" stroke="#5e5e5e" stroke-width="2" fill="#5e5e5e"/><path d="M6858.16 1157.4h25.52a6 6 0 0 0 6-6v-46.85a6 6 0 0 1 6-6h745.9a6 6 0 0 1 6 6v56.42a6 6 0 0 1-6 6h-94.4" stroke="#5e5e5e" stroke-width="2" fill="none"/><path d="M6858.2 1158.4h-.98v-.08l-.08-1.2-.16-.73h1.2z" stroke="#5e5e5e" stroke-width=".05" fill="#5e5e5e"/><path d="M7531.93 1166.97l14.26-4.63v9.27z" stroke="#5e5e5e" stroke-width="2" fill="#5e5e5e"/><path d="M6315.9 1003.62a6 6 0 0 1 6-6h228a6 6 0 0 1 6 6v48a6 6 0 0 1-6 6h-228a6 6 0 0 1-6-6z" stroke="#000" stroke-opacity="0" stroke-width="3" fill="#fff" fill-opacity="0"/><use xlink:href="#U" transform="matrix(1,0,0,1,6320.910476237752,1002.6162589581802) translate(90.37037037037038 30.27777777777778)"/><path d="M6174 1044.2a6 6 0 0 1 6-6h517.03a6 6 0 0 1 6 6v304.73a6 6 0 0 1-6 6H6180a6 6 0 0 1-6-6z" stroke="#fff" stroke-width="3" fill="#fff"/><use xlink:href="#B" transform="matrix(1,0,0,1,6178.991533655013,1043.2139927917306) translate(233.48765432098764 156.88715277777777)"/><path d="M5607.4 1261.52a6 6 0 0 1 6-6h186.44a6 6 0 0 1 6 6v126.8a6 6 0 0 1-6 6H5613.4a6 6 0 0 1-6-6z" stroke="#fff" stroke-width="3" fill="#fff"/><use xlink:href="#B" transform="matrix(1,0,0,1,5612.396537639133,1260.5149630433098) translate(67.98765432098766 70.18402777777777)"/><path d="M5586.62 1213.48a6 6 0 0 1 6-6h228a6 6 0 0 1 6 6v48a6 6 0 0 1-6 6h-228a6 6 0 0 1-6-6z" stroke="#000" stroke-opacity="0" stroke-width="3" fill="#fff" fill-opacity="0"/><use xlink:href="#V" transform="matrix(1,0,0,1,5591.6168427600305,1212.4796093006319) translate(87.9320987654321 30.27777777777778)"/><path d="M7181.54 1135.62a6 6 0 0 1 6-6h197.67a6 6 0 0 1 6 6v178a6 6 0 0 1-6 6h-197.66a6 6 0 0 1-6-6z" stroke="#fff" stroke-width="3" fill="#fff"/><use xlink:href="#B" transform="matrix(1,0,0,1,7186.5433714845185,1134.6156636625483) translate(73.48765432098766 96.52777777777777)"/><path d="M7166.38 1086.6a6 6 0 0 1 6-6h228a6 6 0 0 1 6 6v48a6 6 0 0 1-6 6h-228a6 6 0 0 1-6-6z" stroke="#000" stroke-opacity="0" stroke-width="3" fill="#fff" fill-opacity="0"/><use xlink:href="#W" transform="matrix(1,0,0,1,7171.3767048178515,1085.6055650707744) translate(84.19753086419753 30.27777777777778)"/><path d="M5247.38 1408.1h94.35a6 6 0 0 0 6-6V1079.3a6 6 0 0 1 6-6h644.1M5247.4 1408.1h-1.02" stroke="#5e5e5e" stroke-width="2" fill="none"/><path d="M6013.1 1073.28l-14.27 4.64v-9.27z" stroke="#5e5e5e" stroke-width="2" fill="#5e5e5e"/><path d="M5249.2 879.63h377.08a6 6 0 0 1 6 6v268.4a6 6 0 0 0 6 6h359.6M5249.22 879.63h-1.03" stroke="#5e5e5e" stroke-width="2" fill="none"/><path d="M6013.13 1160.03l-14.26 4.63v-9.27z" stroke="#5e5e5e" stroke-width="2" fill="#5e5e5e"/><path d="M5246.6 1402.68h91.5a6 6 0 0 0 6-6V1082.9a6 6 0 0 1 6-6h610.6a6 6 0 0 0 6-6V882a6 6 0 0 1 6-6h1014.2a6 6 0 0 1 6 6v281.18a6 6 0 0 0 6 6h25.68M5246.62 1402.68h-1.02" stroke="#5e5e5e" stroke-width="2" fill="none"/><path d="M7039.84 1169.18l-14.26 4.63v-9.26z" stroke="#5e5e5e" stroke-width="2" fill="#5e5e5e"/><path d="M6858.16 1157.4h25.54a6 6 0 0 0 6-6v-48a6 6 0 0 1 6-6h847.22a6 6 0 0 1 6 6v303.9a6 6 0 0 0 6 6h120.88" stroke="#5e5e5e" stroke-width="2" fill="none"/><path d="M6858.2 1158.4h-.98v-.08l-.08-1.2-.16-.73h1.2z" stroke="#5e5e5e" stroke-width=".05" fill="#5e5e5e"/><path d="M7891.07 1413.3l-14.27 4.62v-9.27z" stroke="#5e5e5e" stroke-width="2" fill="#5e5e5e"/><path d="M6858.2 1076.76h33.64a6 6 0 0 0 6-6v-30.85a6 6 0 0 1 6-6h774.42a6 6 0 0 0 6-6V890.13a6 6 0 0 1 6-6h187.17" stroke="#5e5e5e" stroke-width="2" fill="none"/><path d="M6858.22 1077.76h-1.03l.03-.55-.1-1.18-.05-.26h1.14z" stroke="#5e5e5e" stroke-width=".05" fill="#5e5e5e"/><path d="M7892.7 884.12l-14.27 4.63v-9.27z" stroke="#5e5e5e" stroke-width="2" fill="#5e5e5e"/></g><defs><path fill="#333" d="M85-194c31 0 48 13 60 33l-1-100h32l1 261h-30c-2-10 0-23-3-31C134-8 116 4 85 4 32 4 16-35 15-94c0-66 23-100 70-100zm9 24c-40 0-46 34-46 75 0 40 6 74 45 74 42 0 51-32 51-76 0-42-9-74-50-73" id="X"/><path fill="#333" d="M141-36C126-15 110 5 73 4 37 3 15-17 15-53c-1-64 63-63 125-63 3-35-9-54-41-54-24 1-41 7-42 31l-33-3c5-37 33-52 76-52 45 0 72 20 72 64v82c-1 20 7 32 28 27v20c-31 9-61-2-59-35zM48-53c0 20 12 33 32 33 41-3 63-29 60-74-43 2-92-5-92 41" id="Y"/><path fill="#333" d="M59-47c-2 24 18 29 38 22v24C64 9 27 4 27-40v-127H5v-23h24l9-43h21v43h35v23H59v120" id="Z"/><path fill="#333" d="M115-194c55 1 70 41 70 98S169 2 115 4C84 4 66-9 55-30l1 105H24l-1-265h31l2 30c10-21 28-34 59-34zm-8 174c40 0 45-34 45-75s-6-73-45-74c-42 0-51 32-51 76 0 43 10 73 51 73" id="aa"/><path fill="#333" d="M106-169C34-169 62-67 57 0H25v-261h32l-1 103c12-21 28-36 61-36 89 0 53 116 60 194h-32v-121c2-32-8-49-39-48" id="ab"/><g id="a"><use transform="matrix(0.04938271604938272,0,0,0.04938271604938272,0,0)" xlink:href="#X"/><use transform="matrix(0.04938271604938272,0,0,0.04938271604938272,9.876543209876544,0)" xlink:href="#Y"/><use transform="matrix(0.04938271604938272,0,0,0.04938271604938272,19.75308641975309,0)" xlink:href="#Z"/><use transform="matrix(0.04938271604938272,0,0,0.04938271604938272,24.69135802469136,0)" xlink:href="#Y"/><use transform="matrix(0.04938271604938272,0,0,0.04938271604938272,34.567901234567906,0)" xlink:href="#aa"/><use transform="matrix(0.04938271604938272,0,0,0.04938271604938272,44.44444444444445,0)" xlink:href="#Y"/><use transform="matrix(0.04938271604938272,0,0,0.04938271604938272,54.320987654320994,0)" xlink:href="#Z"/><use transform="matrix(0.04938271604938272,0,0,0.04938271604938272,59.25925925925927,0)" xlink:href="#ab"/></g><path fill="#333" d="M27 0v-27h64v-190l-56 39v-29l58-41h29v221h61V0H27" id="ac"/><use transform="matrix(0.04938271604938272,0,0,0.04938271604938272,0,0)" xlink:href="#ac" id="b"/><path fill="#333" d="M101-251c82-7 93 87 43 132L82-64C71-53 59-42 53-27h129V0H18c2-99 128-94 128-182 0-28-16-43-45-43s-46 15-49 41l-32-3c6-41 34-60 81-64" id="ad"/><use transform="matrix(0.04938271604938272,0,0,0.04938271604938272,0,0)" xlink:href="#ad" id="c"/><path fill="#333" d="M126-127c33 6 58 20 58 59 0 88-139 92-164 29-3-8-5-16-6-25l32-3c6 27 21 44 54 44 32 0 52-15 52-46 0-38-36-46-79-43v-28c39 1 72-4 72-42 0-27-17-43-46-43-28 0-47 15-49 41l-32-3c6-42 35-63 81-64 48-1 79 21 79 65 0 36-21 52-52 59" id="ae"/><use transform="matrix(0.04938271604938272,0,0,0.04938271604938272,0,0)" xlink:href="#ae" id="d"/><path fill="#333" d="M155-56V0h-30v-56H8v-25l114-167h33v167h35v25h-35zm-30-156c-27 46-58 90-88 131h88v-131" id="af"/><use transform="matrix(0.04938271604938272,0,0,0.04938271604938272,0,0)" xlink:href="#af" id="e"/><path fill="#333" d="M54-142c48-35 137-8 131 61C196 18 31 33 14-55l32-4c7 23 22 37 52 37 35-1 51-22 54-58 4-55-73-65-99-34H22l8-134h141v27H59" id="ag"/><use transform="matrix(0.04938271604938272,0,0,0.04938271604938272,0,0)" xlink:href="#ag" id="f"/><path fill="#333" d="M110-160c48 1 74 30 74 79 0 53-28 85-80 85-65 0-83-55-86-122-5-90 50-162 133-122 14 7 22 21 27 39l-31 6c-5-40-67-38-82-6-9 19-15 44-15 74 11-20 30-34 60-33zm-7 138c34 0 49-23 49-58s-16-56-50-56c-29 0-50 16-49 49 1 36 15 65 50 65" id="ah"/><use transform="matrix(0.04938271604938272,0,0,0.04938271604938272,0,0)" xlink:href="#ah" id="g"/><path fill="#333" d="M64 0c3-98 48-159 88-221H18v-27h164v26C143-157 98-101 97 0H64" id="ai"/><use transform="matrix(0.04938271604938272,0,0,0.04938271604938272,0,0)" xlink:href="#ai" id="h"/><path fill="#333" d="M134-131c28 9 52 24 51 62-1 50-34 73-85 73S17-19 16-69c0-36 21-54 49-61-75-25-45-126 34-121 46 3 78 18 79 63 0 33-17 51-44 57zm-34-11c31 1 46-15 46-44 0-28-17-43-47-42-29 0-46 13-45 42 1 28 16 44 46 44zm1 122c35 0 51-18 51-52 0-30-18-46-53-46-33 0-51 17-51 47 0 34 19 51 53 51" id="aj"/><use transform="matrix(0.04938271604938272,0,0,0.04938271604938272,0,0)" xlink:href="#aj" id="i"/><path d="M99-251c64 0 84 50 84 122C183-37 130 33 47-8c-14-7-20-23-25-40l30-5c6 39 69 39 84 7 9-19 16-44 16-74-10 22-31 35-62 35-49 0-73-33-73-83 0-54 28-83 82-83zm-1 141c31-1 51-18 51-49 0-36-14-67-51-67-34 0-49 23-49 58 0 34 15 58 49 58" id="ak"/><use transform="matrix(0.04938271604938272,0,0,0.04938271604938272,0,0)" xlink:href="#ak" id="j"/><path d="M27 0v-27h64v-190l-56 39v-29l58-41h29v221h61V0H27" id="al"/><path d="M101-251c68 0 85 55 85 127S166 4 100 4C33 4 14-52 14-124c0-73 17-127 87-127zm-1 229c47 0 54-49 54-102s-4-102-53-102c-51 0-55 48-55 102 0 53 5 102 54 102" id="am"/><g id="k"><use transform="matrix(0.04938271604938272,0,0,0.04938271604938272,0,0)" xlink:href="#al"/><use transform="matrix(0.04938271604938272,0,0,0.04938271604938272,9.876543209876544,0)" xlink:href="#am"/></g><g id="l"><use transform="matrix(0.04938271604938272,0,0,0.04938271604938272,0,0)" xlink:href="#al"/><use transform="matrix(0.04938271604938272,0,0,0.04938271604938272,8.54320987654321,0)" xlink:href="#al"/></g><path d="M101-251c82-7 93 87 43 132L82-64C71-53 59-42 53-27h129V0H18c2-99 128-94 128-182 0-28-16-43-45-43s-46 15-49 41l-32-3c6-41 34-60 81-64" id="an"/><g id="m"><use transform="matrix(0.04938271604938272,0,0,0.04938271604938272,0,0)" xlink:href="#al"/><use transform="matrix(0.04938271604938272,0,0,0.04938271604938272,9.876543209876544,0)" xlink:href="#an"/></g><path d="M126-127c33 6 58 20 58 59 0 88-139 92-164 29-3-8-5-16-6-25l32-3c6 27 21 44 54 44 32 0 52-15 52-46 0-38-36-46-79-43v-28c39 1 72-4 72-42 0-27-17-43-46-43-28 0-47 15-49 41l-32-3c6-42 35-63 81-64 48-1 79 21 79 65 0 36-21 52-52 59" id="ao"/><g id="n"><use transform="matrix(0.04938271604938272,0,0,0.04938271604938272,0,0)" xlink:href="#al"/><use transform="matrix(0.04938271604938272,0,0,0.04938271604938272,9.876543209876544,0)" xlink:href="#ao"/></g><path d="M155-56V0h-30v-56H8v-25l114-167h33v167h35v25h-35zm-30-156c-27 46-58 90-88 131h88v-131" id="ap"/><g id="o"><use transform="matrix(0.04938271604938272,0,0,0.04938271604938272,0,0)" xlink:href="#al"/><use transform="matrix(0.04938271604938272,0,0,0.04938271604938272,9.876543209876544,0)" xlink:href="#ap"/></g><path d="M54-142c48-35 137-8 131 61C196 18 31 33 14-55l32-4c7 23 22 37 52 37 35-1 51-22 54-58 4-55-73-65-99-34H22l8-134h141v27H59" id="aq"/><g id="p"><use transform="matrix(0.04938271604938272,0,0,0.04938271604938272,0,0)" xlink:href="#al"/><use transform="matrix(0.04938271604938272,0,0,0.04938271604938272,9.876543209876544,0)" xlink:href="#aq"/></g><path fill="#333" d="M233-177c-1 41-23 64-60 70L243 0h-38l-65-103H63V0H30v-248c88 3 205-21 203 71zM63-129c60-2 137 13 137-47 0-61-80-42-137-45v92" id="ar"/><path fill="#333" d="M30 0v-248h187v28H63v79h144v27H63v87h162V0H30" id="as"/><path fill="#333" d="M185-189c-5-48-123-54-124 2 14 75 158 14 163 119 3 78-121 87-175 55-17-10-28-26-33-46l33-7c5 56 141 63 141-1 0-78-155-14-162-118-5-82 145-84 179-34 5 7 8 16 11 25" id="at"/><path fill="#333" d="M127-220V0H93v-220H8v-28h204v28h-85" id="au"/><path fill="#333" d="M33-154v-36h34v36H33zM33 0v-36h34V0H33" id="av"/><g id="q"><use transform="matrix(0.1358024691358025,0,0,0.1358024691358025,0,0)" xlink:href="#ar"/><use transform="matrix(0.1358024691358025,0,0,0.1358024691358025,35.17283950617284,0)" xlink:href="#as"/><use transform="matrix(0.1358024691358025,0,0,0.1358024691358025,67.76543209876544,0)" xlink:href="#at"/><use transform="matrix(0.1358024691358025,0,0,0.1358024691358025,100.35802469135804,0)" xlink:href="#as"/><use transform="matrix(0.1358024691358025,0,0,0.1358024691358025,132.95061728395063,0)" xlink:href="#au"/><use transform="matrix(0.1358024691358025,0,0,0.1358024691358025,157.25925925925924,0)" xlink:href="#av"/><use transform="matrix(0.1358024691358025,0,0,0.1358024691358025,170.83950617283952,0)" xlink:href="#ac"/></g><path fill="#333" d="M212-179c-10-28-35-45-73-45-59 0-87 40-87 99 0 60 29 101 89 101 43 0 62-24 78-52l27 14C228-24 195 4 139 4 59 4 22-46 18-125c-6-104 99-153 187-111 19 9 31 26 39 46" id="aw"/><path fill="#333" d="M30 0v-248h33v221h125V0H30" id="ax"/><path fill="#333" d="M194 0L95-120 63-95V0H30v-248h33v124l119-124h40L117-140 236 0h-42" id="ay"/><g id="r"><use transform="matrix(0.1358024691358025,0,0,0.1358024691358025,0,0)" xlink:href="#aw"/><use transform="matrix(0.1358024691358025,0,0,0.1358024691358025,35.17283950617284,0)" xlink:href="#ax"/><use transform="matrix(0.1358024691358025,0,0,0.1358024691358025,62.33333333333334,0)" xlink:href="#ay"/><use transform="matrix(0.1358024691358025,0,0,0.1358024691358025,94.92592592592594,0)" xlink:href="#av"/><use transform="matrix(0.1358024691358025,0,0,0.1358024691358025,108.50617283950619,0)" xlink:href="#ac"/></g><path fill="#333" d="M266 0h-40l-56-210L115 0H75L2-248h35L96-30l15-64 43-154h32l59 218 59-218h35" id="az"/><path fill="#333" d="M114-163C36-179 61-72 57 0H25l-1-190h30c1 12-1 29 2 39 6-27 23-49 58-41v29" id="aA"/><path fill="#333" d="M24-231v-30h32v30H24zM24 0v-190h32V0H24" id="aB"/><path fill="#333" d="M100-194c63 0 86 42 84 106H49c0 40 14 67 53 68 26 1 43-12 49-29l28 8c-11 28-37 45-77 45C44 4 14-33 15-96c1-61 26-98 85-98zm52 81c6-60-76-77-97-28-3 7-6 17-6 28h103" id="aC"/><path fill="#333" d="M30-248c118-7 216 8 213 122C240-48 200 0 122 0H30v-248zM63-27c89 8 146-16 146-99s-60-101-146-95v194" id="aD"/><g id="s"><use transform="matrix(0.1358024691358025,0,0,0.1358024691358025,0,0)" xlink:href="#az"/><use transform="matrix(0.1358024691358025,0,0,0.1358024691358025,45.086419753086425,0)" xlink:href="#aA"/><use transform="matrix(0.1358024691358025,0,0,0.1358024691358025,61.246913580246925,0)" xlink:href="#aB"/><use transform="matrix(0.1358024691358025,0,0,0.1358024691358025,71.97530864197532,0)" xlink:href="#Z"/><use transform="matrix(0.1358024691358025,0,0,0.1358024691358025,85.55555555555557,0)" xlink:href="#aC"/><use transform="matrix(0.1358024691358025,0,0,0.1358024691358025,112.71604938271606,0)" xlink:href="#aD"/><use transform="matrix(0.1358024691358025,0,0,0.1358024691358025,147.8888888888889,0)" xlink:href="#Y"/><use transform="matrix(0.1358024691358025,0,0,0.1358024691358025,175.04938271604942,0)" xlink:href="#Z"/><use transform="matrix(0.1358024691358025,0,0,0.1358024691358025,188.62962962962968,0)" xlink:href="#Y"/><use transform="matrix(0.1358024691358025,0,0,0.1358024691358025,215.79012345679018,0)" xlink:href="#av"/><use transform="matrix(0.1358024691358025,0,0,0.1358024691358025,229.37037037037044,0)" xlink:href="#ae"/><use transform="matrix(0.1358024691358025,0,0,0.1358024691358025,256.53086419753095,0)" xlink:href="#ad"/></g><path fill="#333" d="M205 0l-28-72H64L36 0H1l101-248h38L239 0h-34zm-38-99l-47-123c-12 45-31 82-46 123h93" id="aE"/><g id="t"><use transform="matrix(0.1358024691358025,0,0,0.1358024691358025,0,0)" xlink:href="#aD"/><use transform="matrix(0.1358024691358025,0,0,0.1358024691358025,35.17283950617284,0)" xlink:href="#Y"/><use transform="matrix(0.1358024691358025,0,0,0.1358024691358025,62.33333333333334,0)" xlink:href="#Z"/><use transform="matrix(0.1358024691358025,0,0,0.1358024691358025,75.9135802469136,0)" xlink:href="#Y"/><use transform="matrix(0.1358024691358025,0,0,0.1358024691358025,103.07407407407409,0)" xlink:href="#aE"/><use transform="matrix(0.1358024691358025,0,0,0.1358024691358025,135.66666666666669,0)" xlink:href="#X"/><use transform="matrix(0.1358024691358025,0,0,0.1358024691358025,162.8271604938272,0)" xlink:href="#aA"/><use transform="matrix(0.1358024691358025,0,0,0.1358024691358025,178.9876543209877,0)" xlink:href="#av"/><use transform="matrix(0.1358024691358025,0,0,0.1358024691358025,192.56790123456796,0)" xlink:href="#ae"/><use transform="matrix(0.1358024691358025,0,0,0.1358024691358025,219.72839506172846,0)" xlink:href="#ad"/></g><path fill="#333" d="M240 0l2-218c-23 76-54 145-80 218h-23L58-218 59 0H30v-248h44l77 211c21-75 51-140 76-211h43V0h-30" id="aF"/><path fill="#333" d="M210-169c-67 3-38 105-44 169h-31v-121c0-29-5-50-35-48C34-165 62-65 56 0H25l-1-190h30c1 10-1 24 2 32 10-44 99-50 107 0 11-21 27-35 58-36 85-2 47 119 55 194h-31v-121c0-29-5-49-35-48" id="aG"/><g id="u"><use transform="matrix(0.1358024691358025,0,0,0.1358024691358025,0,0)" xlink:href="#aF"/><use transform="matrix(0.1358024691358025,0,0,0.1358024691358025,40.604938271604944,0)" xlink:href="#aC"/><use transform="matrix(0.1358024691358025,0,0,0.1358024691358025,67.76543209876544,0)" xlink:href="#aG"/><use transform="matrix(0.1358024691358025,0,0,0.1358024691358025,108.37037037037038,0)" xlink:href="#az"/><use transform="matrix(0.1358024691358025,0,0,0.1358024691358025,153.4567901234568,0)" xlink:href="#aA"/><use transform="matrix(0.1358024691358025,0,0,0.1358024691358025,169.61728395061732,0)" xlink:href="#aB"/><use transform="matrix(0.1358024691358025,0,0,0.1358024691358025,180.34567901234573,0)" xlink:href="#Z"/><use transform="matrix(0.1358024691358025,0,0,0.1358024691358025,193.92592592592598,0)" xlink:href="#aC"/><use transform="matrix(0.1358024691358025,0,0,0.1358024691358025,221.0864197530865,0)" xlink:href="#av"/><use transform="matrix(0.1358024691358025,0,0,0.1358024691358025,234.66666666666674,0)" xlink:href="#ac"/></g><path d="M59-47c-2 24 18 29 38 22v24C64 9 27 4 27-40v-127H5v-23h24l9-43h21v43h35v23H59v120" id="aH"/><path d="M100-194c62-1 85 37 85 99 1 63-27 99-86 99S16-35 15-95c0-66 28-99 85-99zM99-20c44 1 53-31 53-75 0-43-8-75-51-75s-53 32-53 75 10 74 51 75" id="aI"/><path d="M115-194c55 1 70 41 70 98S169 2 115 4C84 4 66-9 55-30l1 105H24l-1-265h31l2 30c10-21 28-34 59-34zm-8 174c40 0 45-34 45-75s-6-73-45-74c-42 0-51 32-51 76 0 43 10 73 51 73" id="aJ"/><path d="M33-154v-36h34v36H33zM33 0v-36h34V0H33" id="aK"/><path d="M85-194c31 0 48 13 60 33l-1-100h32l1 261h-30c-2-10 0-23-3-31C134-8 116 4 85 4 32 4 16-35 15-94c0-66 23-100 70-100zm9 24c-40 0-46 34-46 75 0 40 6 74 45 74 42 0 51-32 51-76 0-42-9-74-50-73" id="aL"/><path d="M84 4C-5 8 30-112 23-190h32v120c0 31 7 50 39 49 72-2 45-101 50-169h31l1 190h-30c-1-10 1-25-2-33-11 22-28 36-60 37" id="aM"/><g id="v"><use transform="matrix(0.1358024691358025,0,0,0.1358024691358025,0,0)" xlink:href="#aH"/><use transform="matrix(0.1358024691358025,0,0,0.1358024691358025,13.580246913580249,0)" xlink:href="#aI"/><use transform="matrix(0.1358024691358025,0,0,0.1358024691358025,40.74074074074075,0)" xlink:href="#aJ"/><use transform="matrix(0.1358024691358025,0,0,0.1358024691358025,67.90123456790124,0)" xlink:href="#aK"/><use transform="matrix(0.1358024691358025,0,0,0.1358024691358025,81.4814814814815,0)" xlink:href="#aL"/><use transform="matrix(0.1358024691358025,0,0,0.1358024691358025,108.64197530864199,0)" xlink:href="#aM"/><use transform="matrix(0.1358024691358025,0,0,0.1358024691358025,135.80246913580248,0)" xlink:href="#aH"/></g><use transform="matrix(0.1358024691358025,0,0,0.1358024691358025,0,0)" xlink:href="#al" id="w"/><use transform="matrix(0.1358024691358025,0,0,0.1358024691358025,0,0)" xlink:href="#an" id="x"/><use transform="matrix(0.1358024691358025,0,0,0.1358024691358025,0,0)" xlink:href="#ao" id="y"/><use transform="matrix(0.1358024691358025,0,0,0.1358024691358025,0,0)" xlink:href="#ap" id="z"/><use transform="matrix(0.1358024691358025,0,0,0.1358024691358025,0,0)" xlink:href="#aq" id="A"/><path fill="#fff" d="M127-220V0H93v-220H8v-28h204v28h-85" id="aN"/><path fill="#fff" d="M100-194c63 0 86 42 84 106H49c0 40 14 67 53 68 26 1 43-12 49-29l28 8c-11 28-37 45-77 45C44 4 14-33 15-96c1-61 26-98 85-98zm52 81c6-60-76-77-97-28-3 7-6 17-6 28h103" id="aO"/><path fill="#fff" d="M141 0L90-78 38 0H4l68-98-65-92h35l48 74 47-74h35l-64 92 68 98h-35" id="aP"/><path fill="#fff" d="M59-47c-2 24 18 29 38 22v24C64 9 27 4 27-40v-127H5v-23h24l9-43h21v43h35v23H59v120" id="aQ"/><path fill="#fff" d="M100-194c62-1 85 37 85 99 1 63-27 99-86 99S16-35 15-95c0-66 28-99 85-99zM99-20c44 1 53-31 53-75 0-43-8-75-51-75s-53 32-53 75 10 74 51 75" id="aR"/><g id="B"><use transform="matrix(0.06172839506172839,0,0,0.06172839506172839,0,0)" xlink:href="#aN"/><use transform="matrix(0.06172839506172839,0,0,0.06172839506172839,11.049382716049381,0)" xlink:href="#aO"/><use transform="matrix(0.06172839506172839,0,0,0.06172839506172839,23.39506172839506,0)" xlink:href="#aP"/><use transform="matrix(0.06172839506172839,0,0,0.06172839506172839,34.50617283950617,0)" xlink:href="#aQ"/><use transform="matrix(0.06172839506172839,0,0,0.06172839506172839,40.67901234567901,0)" xlink:href="#aR"/></g><g id="C"><use transform="matrix(0.05555555555555554,0,0,0.05555555555555554,0,0)" xlink:href="#X"/><use transform="matrix(0.05555555555555554,0,0,0.05555555555555554,11.111111111111107,0)" xlink:href="#aG"/><use transform="matrix(0.05555555555555554,0,0,0.05555555555555554,27.722222222222214,0)" xlink:href="#aC"/><use transform="matrix(0.05555555555555554,0,0,0.05555555555555554,38.83333333333332,0)" xlink:href="#aG"/></g><use transform="matrix(0.05555555555555554,0,0,0.05555555555555554,0,0)" xlink:href="#ac" id="D"/><use transform="matrix(0.05555555555555554,0,0,0.05555555555555554,0,0)" xlink:href="#ad" id="E"/><use transform="matrix(0.05555555555555554,0,0,0.05555555555555554,0,0)" xlink:href="#ae" id="F"/><use transform="matrix(0.05555555555555554,0,0,0.05555555555555554,0,0)" xlink:href="#af" id="G"/><use transform="matrix(0.05555555555555554,0,0,0.05555555555555554,0,0)" xlink:href="#ag" id="H"/><g id="I"><use transform="matrix(0.04320987654320987,0,0,0.04320987654320987,0,0)" xlink:href="#aw"/><use transform="matrix(0.04320987654320987,0,0,0.04320987654320987,11.191358024691356,0)" xlink:href="#ax"/><use transform="matrix(0.04320987654320987,0,0,0.04320987654320987,19.83333333333333,0)" xlink:href="#ay"/><use transform="matrix(0.04320987654320987,0,0,0.04320987654320987,30.2037037037037,0)" xlink:href="#av"/><use transform="matrix(0.04320987654320987,0,0,0.04320987654320987,34.52469135802468,0)" xlink:href="#ac"/></g><g id="J"><use transform="matrix(0.04320987654320987,0,0,0.04320987654320987,0,0)" xlink:href="#aF"/><use transform="matrix(0.04320987654320987,0,0,0.04320987654320987,12.91975308641975,0)" xlink:href="#aC"/><use transform="matrix(0.04320987654320987,0,0,0.04320987654320987,21.56172839506172,0)" xlink:href="#aG"/><use transform="matrix(0.04320987654320987,0,0,0.04320987654320987,34.48148148148147,0)" xlink:href="#az"/><use transform="matrix(0.04320987654320987,0,0,0.04320987654320987,48.82716049382714,0)" xlink:href="#aA"/><use transform="matrix(0.04320987654320987,0,0,0.04320987654320987,53.96913580246911,0)" xlink:href="#aB"/><use transform="matrix(0.04320987654320987,0,0,0.04320987654320987,57.3827160493827,0)" xlink:href="#Z"/><use transform="matrix(0.04320987654320987,0,0,0.04320987654320987,61.70370370370369,0)" xlink:href="#aC"/><use transform="matrix(0.04320987654320987,0,0,0.04320987654320987,70.34567901234566,0)" xlink:href="#av"/><use transform="matrix(0.04320987654320987,0,0,0.04320987654320987,74.66666666666664,0)" xlink:href="#ac"/></g><g id="K"><use transform="matrix(0.04320987654320987,0,0,0.04320987654320987,0,0)" xlink:href="#aD"/><use transform="matrix(0.04320987654320987,0,0,0.04320987654320987,11.191358024691356,0)" xlink:href="#Y"/><use transform="matrix(0.04320987654320987,0,0,0.04320987654320987,19.83333333333333,0)" xlink:href="#Z"/><use transform="matrix(0.04320987654320987,0,0,0.04320987654320987,24.154320987654316,0)" xlink:href="#Y"/><use transform="matrix(0.04320987654320987,0,0,0.04320987654320987,32.79629629629629,0)" xlink:href="#aE"/><use transform="matrix(0.04320987654320987,0,0,0.04320987654320987,43.16666666666666,0)" xlink:href="#X"/><use transform="matrix(0.04320987654320987,0,0,0.04320987654320987,51.80864197530863,0)" xlink:href="#aA"/><use transform="matrix(0.04320987654320987,0,0,0.04320987654320987,56.950617283950606,0)" xlink:href="#av"/><use transform="matrix(0.04320987654320987,0,0,0.04320987654320987,61.271604938271594,0)" xlink:href="#ae"/><use transform="matrix(0.04320987654320987,0,0,0.04320987654320987,69.91358024691357,0)" xlink:href="#ad"/></g><g id="L"><use transform="matrix(0.04320987654320987,0,0,0.04320987654320987,0,0)" xlink:href="#az"/><use transform="matrix(0.04320987654320987,0,0,0.04320987654320987,14.345679012345675,0)" xlink:href="#aA"/><use transform="matrix(0.04320987654320987,0,0,0.04320987654320987,19.48765432098765,0)" xlink:href="#aB"/><use transform="matrix(0.04320987654320987,0,0,0.04320987654320987,22.90123456790123,0)" xlink:href="#Z"/><use transform="matrix(0.04320987654320987,0,0,0.04320987654320987,27.222222222222218,0)" xlink:href="#aC"/><use transform="matrix(0.04320987654320987,0,0,0.04320987654320987,35.86419753086419,0)" xlink:href="#aD"/><use transform="matrix(0.04320987654320987,0,0,0.04320987654320987,47.05555555555554,0)" xlink:href="#Y"/><use transform="matrix(0.04320987654320987,0,0,0.04320987654320987,55.69753086419752,0)" xlink:href="#Z"/><use transform="matrix(0.04320987654320987,0,0,0.04320987654320987,60.018518518518505,0)" xlink:href="#Y"/><use transform="matrix(0.04320987654320987,0,0,0.04320987654320987,68.66049382716048,0)" xlink:href="#av"/><use transform="matrix(0.04320987654320987,0,0,0.04320987654320987,72.98148148148147,0)" xlink:href="#ae"/><use transform="matrix(0.04320987654320987,0,0,0.04320987654320987,81.62345679012344,0)" xlink:href="#ad"/></g><g id="M"><use transform="matrix(0.04320987654320987,0,0,0.04320987654320987,0,0)" xlink:href="#ar"/><use transform="matrix(0.04320987654320987,0,0,0.04320987654320987,11.191358024691356,0)" xlink:href="#aC"/><use transform="matrix(0.04320987654320987,0,0,0.04320987654320987,19.83333333333333,0)" xlink:href="#Y"/><use transform="matrix(0.04320987654320987,0,0,0.04320987654320987,28.475308641975303,0)" xlink:href="#X"/><use transform="matrix(0.04320987654320987,0,0,0.04320987654320987,37.11728395061728,0)" xlink:href="#aD"/><use transform="matrix(0.04320987654320987,0,0,0.04320987654320987,48.30864197530863,0)" xlink:href="#Y"/><use transform="matrix(0.04320987654320987,0,0,0.04320987654320987,56.950617283950606,0)" xlink:href="#Z"/><use transform="matrix(0.04320987654320987,0,0,0.04320987654320987,61.271604938271594,0)" xlink:href="#Y"/><use transform="matrix(0.04320987654320987,0,0,0.04320987654320987,69.91358024691357,0)" xlink:href="#av"/><use transform="matrix(0.04320987654320987,0,0,0.04320987654320987,74.23456790123456,0)" xlink:href="#ae"/><use transform="matrix(0.04320987654320987,0,0,0.04320987654320987,82.87654320987653,0)" xlink:href="#ad"/></g><use transform="matrix(0.05555555555555554,0,0,0.05555555555555554,0,0)" xlink:href="#ah" id="N"/><use transform="matrix(0.05555555555555554,0,0,0.05555555555555554,0,0)" xlink:href="#ai" id="O"/><use transform="matrix(0.05555555555555554,0,0,0.05555555555555554,0,0)" xlink:href="#aj" id="P"/><path fill="#333" d="M30-248c87 1 191-15 191 75 0 78-77 80-158 76V0H30v-248zm33 125c57 0 124 11 124-50 0-59-68-47-124-48v98" id="aS"/><g id="Q"><use transform="matrix(0.04320987654320987,0,0,0.04320987654320987,0,0)" xlink:href="#aS"/><use transform="matrix(0.04320987654320987,0,0,0.04320987654320987,10.370370370370368,0)" xlink:href="#aw"/><use transform="matrix(0.04320987654320987,0,0,0.04320987654320987,21.561728395061724,0)" xlink:href="#av"/><use transform="matrix(0.04320987654320987,0,0,0.04320987654320987,25.88271604938271,0)" xlink:href="#ae"/><use transform="matrix(0.04320987654320987,0,0,0.04320987654320987,34.52469135802468,0)" xlink:href="#ad"/></g><path fill="#333" d="M33 0v-248h34V0H33" id="aT"/><path fill="#333" d="M117-194c89-4 53 116 60 194h-32v-121c0-31-8-49-39-48C34-167 62-67 57 0H25l-1-190h30c1 10-1 24 2 32 11-22 29-35 61-36" id="aU"/><path fill="#333" d="M135-143c-3-34-86-38-87 0 15 53 115 12 119 90S17 21 10-45l28-5c4 36 97 45 98 0-10-56-113-15-118-90-4-57 82-63 122-42 12 7 21 19 24 35" id="aV"/><g id="R"><use transform="matrix(0.04320987654320987,0,0,0.04320987654320987,0,0)" xlink:href="#aT"/><use transform="matrix(0.04320987654320987,0,0,0.04320987654320987,4.320987654320986,0)" xlink:href="#aU"/><use transform="matrix(0.04320987654320987,0,0,0.04320987654320987,12.962962962962958,0)" xlink:href="#aV"/><use transform="matrix(0.04320987654320987,0,0,0.04320987654320987,20.740740740740733,0)" xlink:href="#Z"/><use transform="matrix(0.04320987654320987,0,0,0.04320987654320987,25.061728395061724,0)" xlink:href="#aA"/><use transform="matrix(0.04320987654320987,0,0,0.04320987654320987,30.2037037037037,0)" xlink:href="#av"/><use transform="matrix(0.04320987654320987,0,0,0.04320987654320987,34.52469135802468,0)" xlink:href="#ae"/><use transform="matrix(0.04320987654320987,0,0,0.04320987654320987,43.16666666666666,0)" xlink:href="#ad"/></g><g id="S"><use transform="matrix(0.04320987654320987,0,0,0.04320987654320987,0,0)" xlink:href="#ar"/><use transform="matrix(0.04320987654320987,0,0,0.04320987654320987,11.191358024691356,0)" xlink:href="#as"/><use transform="matrix(0.04320987654320987,0,0,0.04320987654320987,21.561728395061724,0)" xlink:href="#at"/><use transform="matrix(0.04320987654320987,0,0,0.04320987654320987,31.932098765432098,0)" xlink:href="#as"/><use transform="matrix(0.04320987654320987,0,0,0.04320987654320987,42.30246913580246,0)" xlink:href="#au"/><use transform="matrix(0.04320987654320987,0,0,0.04320987654320987,50.037037037037024,0)" xlink:href="#av"/><use transform="matrix(0.04320987654320987,0,0,0.04320987654320987,54.358024691358025,0)" xlink:href="#ac"/></g><path fill="#333" d="M24 0v-261h32V0H24" id="aW"/><path fill="#333" d="M84 4C-5 8 30-112 23-190h32v120c0 31 7 50 39 49 72-2 45-101 50-169h31l1 190h-30c-1-10 1-25-2-33-11 22-28 36-60 37" id="aX"/><g id="T"><use transform="matrix(0.04320987654320987,0,0,0.04320987654320987,0,0)" xlink:href="#aE"/><use transform="matrix(0.04320987654320987,0,0,0.04320987654320987,10.370370370370368,0)" xlink:href="#aW"/><use transform="matrix(0.04320987654320987,0,0,0.04320987654320987,13.783950617283947,0)" xlink:href="#aX"/><use transform="matrix(0.04320987654320987,0,0,0.04320987654320987,22.42592592592592,0)" xlink:href="#ar"/><use transform="matrix(0.04320987654320987,0,0,0.04320987654320987,33.61728395061728,0)" xlink:href="#aC"/><use transform="matrix(0.04320987654320987,0,0,0.04320987654320987,42.25925925925925,0)" xlink:href="#aV"/><use transform="matrix(0.04320987654320987,0,0,0.04320987654320987,50.037037037037024,0)" xlink:href="#aX"/><use transform="matrix(0.04320987654320987,0,0,0.04320987654320987,58.67901234567901,0)" xlink:href="#aW"/><use transform="matrix(0.04320987654320987,0,0,0.04320987654320987,62.09259259259259,0)" xlink:href="#Z"/><use transform="matrix(0.04320987654320987,0,0,0.04320987654320987,66.41358024691357,0)" xlink:href="#av"/><use transform="matrix(0.04320987654320987,0,0,0.04320987654320987,70.73456790123456,0)" xlink:href="#ae"/><use transform="matrix(0.04320987654320987,0,0,0.04320987654320987,79.37654320987653,0)" xlink:href="#ad"/></g><g id="U"><use transform="matrix(0.06172839506172839,0,0,0.06172839506172839,0,0)" xlink:href="#aE"/><use transform="matrix(0.06172839506172839,0,0,0.06172839506172839,14.814814814814813,0)" xlink:href="#ar"/><use transform="matrix(0.06172839506172839,0,0,0.06172839506172839,30.80246913580247,0)" xlink:href="#aF"/></g><g id="V"><use transform="matrix(0.06172839506172839,0,0,0.06172839506172839,0,0)" xlink:href="#aB"/><use transform="matrix(0.06172839506172839,0,0,0.06172839506172839,4.876543209876543,0)" xlink:href="#aG"/><use transform="matrix(0.06172839506172839,0,0,0.06172839506172839,23.33333333333333,0)" xlink:href="#aC"/><use transform="matrix(0.06172839506172839,0,0,0.06172839506172839,35.679012345679006,0)" xlink:href="#aG"/></g><g id="W"><use transform="matrix(0.06172839506172839,0,0,0.06172839506172839,0,0)" xlink:href="#X"/><use transform="matrix(0.06172839506172839,0,0,0.06172839506172839,12.345679012345679,0)" xlink:href="#aG"/><use transform="matrix(0.06172839506172839,0,0,0.06172839506172839,30.80246913580247,0)" xlink:href="#aC"/><use transform="matrix(0.06172839506172839,0,0,0.06172839506172839,43.148148148148145,0)" xlink:href="#aG"/></g></defs></g></svg>