<svg xmlns="http://www.w3.org/2000/svg" xmlns:xlink="http://www.w3.org/1999/xlink" xmlns:lucid="lucid" width="2944.84" height="2208.03"><g transform="translate(-5912.01843624547 -270.9463538836445)" lucid:page-tab-id="0_0"><path d="M5420.6 0h3677.73v2581.67H5420.6z" fill="#fff"/><path d="M8258.8 2045.9v306.93h193.58V2045.9z" stroke="#5e5e5e" stroke-width="3" fill="#fff"/><path d="M8379.8 2045.9c0 21.2-10.84 38.37-24.2 38.37-13.37 0-24.2-17.18-24.2-38.37M8452.38 2084.27h24.2m-241.97 0h24.2M8452.4 2161h24.2m-241.97 0h24.2m193.58 76.73h24.2m-241.97 0h24.2m193.58 76.73h24.2m-241.97 0h24.2" stroke="#5e5e5e" stroke-width="3" fill="#fff"/><use xlink:href="#a" transform="matrix(1,0,0,1,8234.61387920373,2122.632039915393) translate(105.07407407407409 16.333333333333332)"/><use xlink:href="#b" transform="matrix(1,0,0,1,8270.908096309726,2065.082436292152) translate(10.64814814814815 20.833333333333332)"/><use xlink:href="#c" transform="matrix(1,0,0,1,8270.908096309726,2141.81524112314) translate(10.64814814814815 20.833333333333332)"/><use xlink:href="#d" transform="matrix(1,0,0,1,8270.908096309726,2218.5480459541277) translate(10.64814814814815 20.833333333333332)"/><use xlink:href="#e" transform="matrix(1,0,0,1,8270.908096309726,2295.2808507851155) translate(10.64814814814815 20.833333333333332)"/><use xlink:href="#f" transform="matrix(1,0,0,1,8416.084964733704,2295.2808507851155) translate(10.64814814814815 20.833333333333332)"/><use xlink:href="#g" transform="matrix(1,0,0,1,8416.084964733704,2218.5480459541277) translate(10.64814814814815 20.833333333333332)"/><use xlink:href="#h" transform="matrix(1,0,0,1,8416.084964733704,2141.81524112314) translate(10.64814814814815 20.833333333333332)"/><use xlink:href="#i" transform="matrix(1,0,0,1,8416.084964733704,2065.082436292152) translate(10.64814814814815 20.833333333333332)"/><path d="M8262.08 2052.63a6 6 0 0 1 6-6h175.03a6 6 0 0 1 6 6v293.03a6 6 0 0 1-6 6H8268.1a6 6 0 0 1-6-6z" stroke="#5e5e5e" stroke-width="3" fill="#fff"/><use xlink:href="#j" transform="matrix(1,0,0,1,8267.082854630245,2051.631706362252) translate(35.913580246913575 17.77777777777778)"/><g class="lucid-layer" lucid:layer-id="On6aeOycemOr" display="block"><path d="M6452 459.03V1803.7h1864.9V459.02z" stroke="#5e5e5e" stroke-width="3" fill="#fff"/><path d="M7617.55 459.03c0 92.83-104.36 168.08-233.1 168.08-128.76 0-233.12-75.24-233.12-168.07M8316.9 627.1H8550m-2331.13 0H6452M8316.9 963.3H8550m-2331.13 0H6452m1864.9 336.16H8550m-2331.13 0H6452m1864.9 336.17H8550m-2331.13 0H6452" stroke="#5e5e5e" stroke-width="3" fill="#fff"/><use xlink:href="#k" transform="matrix(1,0,0,1,6568.543402267129,543.0704421984865) translate(111.44444444444444 15.999999999999995)"/><use xlink:href="#l" transform="matrix(1,0,0,1,6568.543402267129,879.2358932849424) translate(111.44444444444444 15.999999999999995)"/><use xlink:href="#m" transform="matrix(1,0,0,1,6568.543402267129,1215.4013443713984) translate(111.44444444444444 15.999999999999995)"/><use xlink:href="#n" transform="matrix(1,0,0,1,6568.543402267129,1551.5667954578544) translate(111.44444444444444 15.999999999999995)"/><use xlink:href="#o" transform="matrix(1,0,0,1,7967.222931511635,1551.5667954578544) translate(111.44444444444444 15.999999999999995)"/><use xlink:href="#p" transform="matrix(1,0,0,1,7967.222931511635,1215.4013443713984) translate(111.44444444444444 15.999999999999995)"/><use xlink:href="#q" transform="matrix(1,0,0,1,7967.222931511635,879.2358932849424) translate(111.44444444444444 15.999999999999995)"/><use xlink:href="#r" transform="matrix(1,0,0,1,7967.222931511635,543.0704421984865) translate(111.44444444444444 15.999999999999995)"/><path d="M8550 1611.95a6 6 0 0 1 6-6h209.56a6 6 0 0 0 6-6v-24.28a2.3 2.3 0 0 1 4-1.54l57.3 63.64a6.67 6.67 0 0 1 0 8.92l-57.3 63.63a2.3 2.3 0 0 1-4-1.54v-24.3a6 6 0 0 0-6-6H8556a6 6 0 0 1-6-6z" stroke="#5e5e5e" stroke-width="3" fill="#fff"/><use xlink:href="#s" transform="matrix(1,0,0,1,8555.00606869685,1574.6727330616657) translate(113.91666666666667 71.94444444444444)"/><path d="M5932.02 1611.95a6 6 0 0 1 6-6h209.55a6 6 0 0 0 6-6v-24.28a2.3 2.3 0 0 1 4.02-1.54l57.26 63.64a6.67 6.67 0 0 1 0 8.92l-57.27 63.63a2.3 2.3 0 0 1-4.03-1.54v-24.3a6 6 0 0 0-6-6h-209.55a6 6 0 0 1-6-6z" stroke="#5e5e5e" stroke-width="3" fill="#fff"/><use xlink:href="#t" transform="matrix(1,0,0,1,5937.01843624547,1574.6727330616657) translate(109.59567901234568 71.94444444444444)"/><path d="M5932.02 589a6 6 0 0 1 6-6h209.55a6 6 0 0 0 6-6v-24.27a2.3 2.3 0 0 1 4.02-1.54l57.26 63.63a6.67 6.67 0 0 1 0 8.9l-57.27 63.65a2.3 2.3 0 0 1-4.03-1.54v-24.28a6 6 0 0 0-6-6h-209.55a6 6 0 0 1-6-6z" stroke="#5e5e5e" stroke-width="3" fill="#fff"/><use xlink:href="#u" transform="matrix(1,0,0,1,5937.01843624547,551.7289372751565) translate(113.91666666666667 71.94444444444444)"/><path d="M5932.02 928.97a6 6 0 0 1 6-6h209.55a6 6 0 0 0 6-6V892.7a2.3 2.3 0 0 1 4.02-1.55l57.26 63.64a6.67 6.67 0 0 1 0 8.9l-57.27 63.65a2.3 2.3 0 0 1-4.03-1.54v-24.27a6 6 0 0 0-6-6h-209.55a6 6 0 0 1-6-6z" stroke="#5e5e5e" stroke-width="3" fill="#fff"/><use xlink:href="#v" transform="matrix(1,0,0,1,5937.01843624547,891.693905964636) translate(104 71.94444444444444)"/><path d="M8550 1261.23a6 6 0 0 1 6-6h209.56a6 6 0 0 0 6-6v-24.28a2.3 2.3 0 0 1 4-1.54l57.3 63.65a6.67 6.67 0 0 1 0 8.92l-57.3 63.64a2.3 2.3 0 0 1-4-1.53v-24.28a6 6 0 0 0-6-6H8556a6 6 0 0 1-6-6z" stroke="#5e5e5e" stroke-width="3" fill="#fff"/><use xlink:href="#w" transform="matrix(1,0,0,1,8555.00606869685,1223.9538759037716) translate(93.8456790123457 71.94444444444444)"/><path d="M8550 928.97a6 6 0 0 1 6-6h209.56a6 6 0 0 0 6-6V892.7a2.3 2.3 0 0 1 4-1.55l57.3 63.64a6.67 6.67 0 0 1 0 8.9l-57.3 63.65a2.3 2.3 0 0 1-4-1.54v-24.27a6 6 0 0 0-6-6H8556a6 6 0 0 1-6-6z" stroke="#5e5e5e" stroke-width="3" fill="#fff"/><use xlink:href="#x" transform="matrix(1,0,0,1,8555.00606869685,891.693905964636) translate(91.49074074074075 71.94444444444444)"/><path d="M8550 596.7a6 6 0 0 1 6-6h209.56a6 6 0 0 0 6-6v-24.27a2.3 2.3 0 0 1 4-1.54l57.3 63.63a6.67 6.67 0 0 1 0 8.92l-57.3 63.64a2.3 2.3 0 0 1-4-1.55v-24.28a6 6 0 0 0-6-6H8556a6 6 0 0 1-6-6z" stroke="#5e5e5e" stroke-width="3" fill="#fff"/><use xlink:href="#y" transform="matrix(1,0,0,1,8555.00606869685,559.4339360255002) translate(90.36728395061729 71.94444444444444)"/><path d="M5932.02 1268.94a6 6 0 0 1 6-6h209.55a6 6 0 0 0 6-6v-24.28a2.3 2.3 0 0 1 4.02-1.54l57.26 63.64a6.67 6.67 0 0 1 0 8.9l-57.27 63.65a2.3 2.3 0 0 1-4.03-1.53v-24.28a6 6 0 0 0-6-6h-209.55a6 6 0 0 1-6-6z" stroke="#5e5e5e" stroke-width="3" fill="#fff"/><use xlink:href="#z" transform="matrix(1,0,0,1,5937.01843624547,1231.658874654114) translate(89.74074074074075 71.94444444444444)"/><path d="M6453.47 470.75a6 6 0 0 1 6-6H8309.9a6 6 0 0 1 6 6v1325.77a6 6 0 0 1-6 6H6459.48a6 6 0 0 1-6-6z" stroke="#5e5e5e" stroke-width="3" fill="#fff"/><use xlink:href="#A" transform="matrix(1,0,0,1,6458.46636698009,469.7477222298271) translate(901.8703703703703 17.77777777777778)"/></g><g class="lucid-layer" lucid:layer-id="mA6ayiE2vtbQ" display="block"><path d="M6464.8 627h-10.05v-2h10.05zm358.04 0h-305.9v-2h305.9z" stroke="#5e5e5e" stroke-width=".05" fill="#5e5e5e"/><path d="M6837.96 625.9l-14.23 4.74-.08-9.27z" fill="#5e5e5e"/><path d="M6841.2 625.86l-18.46 6.16-.1-12.02zm-16.48 3.4l10-3.35-10.06-3.16zM6454.77 627h-1.02v-2h1.02z" stroke="#5e5e5e" stroke-width=".05" fill="#5e5e5e"/><use xlink:href="#B" transform="matrix(1,0,0,1,6464.803747381855,615.3453840123653) translate(0 14.222222222222223)"/><path d="M6463.96 963h-15.73v-2h15.73zm358.44-251.54h-208.63l-.82.07-.76.18-.74.3-.66.42-.6.5-.5.6-.42.67-.3.72-.17.72-.07 240.4-.08 1.06-.26 1.06-.43 1.02-.57.94-.7.83-.85.72-.94.57-1 .42-1.1.27-65.9.03v-2l65.65-.03.73-.18.72-.3.67-.4.6-.52.5-.6.4-.66.3-.73.2-.76.06-.82.08-240.56.27-1.1.42-1.02.57-.93.7-.84.85-.7.93-.58 1.02-.42 1.07-.25 1.05-.1h208.7z" stroke="#5e5e5e" stroke-width=".05" fill="#5e5e5e"/><path d="M6837.66 710.46l-14.26 4.64v-9.27z" fill="#5e5e5e"/><path d="M6840.9 710.46l-18.5 6v-12zm-16.5 3.26l10.02-3.26-10.02-3.26zM6448.25 963h-1.02v-2h1.02z" stroke="#5e5e5e" stroke-width=".05" fill="#5e5e5e"/><use xlink:href="#C" transform="matrix(1,0,0,1,6463.95850390849,951.3333333333334) translate(0 14.222222222222223)"/><path d="M6505.6 1637.28h-31.92v-2h31.92zm316.8-842.72l-152.48.08-.72.17-.72.3-.67.42-.6.5-.5.6-.4.67-.3.72-.2.76-.06.82-.07 831.74-.27 1.1-.42 1.02-.57.94-.7.83-.84.72-.94.57-1 .42-1.08.26-1.06.08h-89.13v-2h89.05l.82-.06.77-.2.7-.3.68-.4.6-.5.5-.6.4-.67.3-.72.2-.73.06-831.58.1-1.05.24-1.07.42-1.02.58-.93.7-.84.85-.7.93-.58 1.02-.42 1.1-.26 152.7-.08z" stroke="#5e5e5e" stroke-width=".05" fill="#5e5e5e"/><path d="M6473.7 1637.28h-1.15l.13-1-.13-1h1.16z" fill="#5e5e5e"/><path d="M6473.73 1637.3h-1.2l.13-1.02-.14-1.02h1.2zm-1.15-2l.13.98-.12.98h1.1v-1.95z" stroke="#5e5e5e" stroke-width=".05" fill="#5e5e5e"/><path d="M6837.66 793.56l-14.26 4.64v-9.27z" fill="#5e5e5e"/><path d="M6840.9 793.56l-18.5 6v-12zm-16.5 3.26l10.02-3.26-10.02-3.26z" stroke="#5e5e5e" stroke-width=".05" fill="#5e5e5e"/><use xlink:href="#D" transform="matrix(1,0,0,1,6505.60162796564,1625.614411345213) translate(0 14.222222222222223)"/><path d="M6924.5 1201.12v552.36h966v-552.36z" stroke="#5e5e5e" stroke-width="3" fill-opacity="0"/><path d="M7528.25 1201.12c0 38.14-54.06 69.05-120.75 69.05-66.7 0-120.75-30.9-120.75-69.05M7890.5 1237.95h120.76m-1207.5 0h120.74m966 73.64h120.76m-1207.5 0h120.74m966 73.64h120.76m-1207.5 0h120.74m966 73.65h120.76m-1207.5 0h120.74m966 73.64h120.76m-1207.5 0h120.74m966 73.64h120.76m-1207.5 0h120.74m966 73.65h120.76m-1207.5 0h120.74m966 73.65h120.76" stroke="#5e5e5e" stroke-width="3" fill-opacity="0"/><use xlink:href="#E" transform="matrix(1,0,0,1,6803.74784499822,1339.2122964353591) translate(569.4320987654321 18.555555555555557)"/><use xlink:href="#F" transform="matrix(1,0,0,1,6984.8743000901595,1203.4242468605978) translate(55.56172839506173 38.55555555555556)"/><use xlink:href="#G" transform="matrix(1,0,0,1,6984.8743000901595,1277.0720025621633) translate(55.56172839506173 38.55555555555556)"/><use xlink:href="#H" transform="matrix(1,0,0,1,6984.8743000901595,1350.7197582637286) translate(55.56172839506173 38.55555555555556)"/><use xlink:href="#I" transform="matrix(1,0,0,1,6984.8743000901595,1424.3675139652942) translate(55.56172839506173 38.55555555555556)"/><use xlink:href="#J" transform="matrix(1,0,0,1,6984.8743000901595,1498.0152696668597) translate(55.56172839506173 38.55555555555556)"/><use xlink:href="#K" transform="matrix(1,0,0,1,6984.8743000901595,1571.663025368425) translate(55.56172839506173 38.55555555555556)"/><use xlink:href="#L" transform="matrix(1,0,0,1,6984.8743000901595,1645.3107810699903) translate(55.56172839506173 38.55555555555556)"/><use xlink:href="#M" transform="matrix(1,0,0,1,7709.3801204579195,1718.9585367715558) translate(55.56172839506173 38.55555555555556)"/><use xlink:href="#N" transform="matrix(1,0,0,1,7709.3801204579195,1645.3107810699903) translate(55.56172839506173 38.55555555555556)"/><use xlink:href="#O" transform="matrix(1,0,0,1,7709.3801204579195,1571.663025368425) translate(50.623456790123456 38.55555555555556)"/><use xlink:href="#P" transform="matrix(1,0,0,1,7709.3801204579195,1498.0152696668597) translate(51.29012345679013 38.55555555555556)"/><use xlink:href="#Q" transform="matrix(1,0,0,1,7709.3801204579195,1424.3675139652942) translate(50.623456790123456 38.55555555555556)"/><use xlink:href="#R" transform="matrix(1,0,0,1,7709.3801204579195,1350.7197582637286) translate(50.623456790123456 38.55555555555556)"/><use xlink:href="#S" transform="matrix(1,0,0,1,7709.3801204579195,1277.0720025621633) translate(50.623456790123456 38.55555555555556)"/><use xlink:href="#T" transform="matrix(1,0,0,1,7709.3801204579195,1203.4242468605978) translate(50.623456790123456 38.55555555555556)"/><path d="M6927.38 1193.42a6 6 0 0 1 6-6h955.9a6 6 0 0 1 6 6v563.5a6 6 0 0 1-6 6h-955.9a6 6 0 0 1-6-6z" stroke="#5e5e5e" stroke-width="3" fill="#fff"/><use xlink:href="#E" transform="matrix(1,0,0,1,6932.3769684203535,1192.4213783017299) translate(444.4320987654321 14.222222222222223)"/><path d="M6957.93 585.8v498.6h936.3V585.8z" stroke="#000" stroke-width="3" fill-opacity="0"/><path d="M7543.1 585.8c0 34.43-52.4 62.34-117.02 62.34-64.64 0-117.04-27.9-117.04-62.33M7894.22 627.36h117.04m-1170.36 0h117.03m936.3 83.1h117.03m-1170.36 0h117.03m936.3 83.1h117.03m-1170.36 0h117.03m936.3 83.1h117.03m-1170.36 0h117.03m936.3 83.1h117.03m-1170.36 0h117.03m936.3 83.1h117.03m-1170.36 0h117.03" stroke="#000" stroke-width="3" fill-opacity="0"/><use xlink:href="#U" transform="matrix(1,0,0,1,6840.896430108548,710.4619848815454) translate(549.0555555555555 18.555555555555557)"/><use xlink:href="#F" transform="matrix(1,0,0,1,7016.450597433939,596.1985015247583) translate(54.06172839506173 35.05555555555556)"/><use xlink:href="#G" transform="matrix(1,0,0,1,7016.450597433939,679.2992166933307) translate(54.06172839506173 35.05555555555556)"/><use xlink:href="#H" transform="matrix(1,0,0,1,7016.450597433939,762.399931861903) translate(54.06172839506173 35.05555555555556)"/><use xlink:href="#I" transform="matrix(1,0,0,1,7016.450597433939,845.5006470304756) translate(54.06172839506173 35.05555555555556)"/><use xlink:href="#J" transform="matrix(1,0,0,1,7016.450597433939,928.601362199048) translate(54.06172839506173 35.05555555555556)"/><use xlink:href="#K" transform="matrix(1,0,0,1,7016.450597433939,1011.7020773676204) translate(54.06172839506173 35.05555555555556)"/><use xlink:href="#L" transform="matrix(1,0,0,1,7718.6672667355015,1011.7020773676204) translate(54.06172839506173 35.05555555555556)"/><use xlink:href="#M" transform="matrix(1,0,0,1,7718.6672667355015,928.601362199048) translate(54.06172839506173 35.05555555555556)"/><use xlink:href="#N" transform="matrix(1,0,0,1,7718.6672667355015,845.5006470304756) translate(54.06172839506173 35.05555555555556)"/><use xlink:href="#O" transform="matrix(1,0,0,1,7718.6672667355015,762.399931861903) translate(49.123456790123456 35.05555555555556)"/><use xlink:href="#P" transform="matrix(1,0,0,1,7718.6672667355015,679.2992166933307) translate(49.79012345679013 35.05555555555556)"/><use xlink:href="#Q" transform="matrix(1,0,0,1,7718.6672667355015,596.1985015247583) translate(49.123456790123456 35.05555555555556)"/><path d="M6957.12 577.77a6 6 0 0 1 6-6h925.9a6 6 0 0 1 6 6v514.68a6 6 0 0 1-6 6h-925.9a6 6 0 0 1-6-6z" stroke="#5e5e5e" stroke-width="3" fill="#fff"/><use xlink:href="#U" transform="matrix(1,0,0,1,6962.123917203952,576.7725097486759) translate(427.55555555555554 14.222222222222223)"/><path d="M6471.17 1636.28c0 6.44-5.6 11.65-12.54 11.65-6.92 0-12.53-5.2-12.53-11.65 0-6.43 5.6-11.65 12.53-11.65s12.54 5.22 12.54 11.65zm-21.4-8.24l17.73 16.48m-17.73 0l17.73-16.48" stroke="#5e5e5e" stroke-width="3" fill="#fff"/><path d="M8046.3 1146.2l1.12.27 1.02.42.93.56.84.72.72.83.58.95.42 1 .25 1.08.1 1.06-.1 79.9-.25 1.1-.42 1.03-.58.93-.7.84-.85.7-.93.6-1.02.4-1.07.26-1.05.1h-33.04v-2h32.96l.82-.08.76-.18.73-.3.66-.4.6-.52.5-.6.4-.67.3-.7.18-.73.08-79.6-.07-.82-.2-.76-.3-.74-.4-.67-.5-.6-.6-.5-.67-.42-.73-.3-.72-.18-577.5-.03v-2zm-1223.9-102.34l-16.32.08-.73.17-.72.3-.67.42-.6.5-.5.6-.42.68-.3.72-.18.76-.06.82.07 93.05.17.72.3.73.4.67.52.6.6.5.67.4.72.3.76.2.84.06 563.18.03v2l-563.26-.03-1.06-.08-1.07-.26-1-.43-.95-.57-.84-.72-.7-.83-.58-.94-.42-1-.27-1.1-.07-93.37.08-1.06.26-1.07.42-1 .57-.95.7-.84.85-.7.94-.58 1-.4 1.12-.28 16.55-.08z" stroke="#5e5e5e" stroke-width=".05" fill="#5e5e5e"/><path d="M8012.28 1238.95h-1.02v-2h1.02z" fill="#5e5e5e"/><path d="M8012.3 1238.97h-1.07v-2.05h1.08zm-1.02-2v1.95h.98v-1.95z" stroke="#5e5e5e" stroke-width=".05" fill="#5e5e5e"/><path d="M6837.66 1042.87l-14.26 4.63v-9.27z" fill="#5e5e5e"/><path d="M6840.9 1042.87l-18.5 6v-12.02zm-16.5 3.25l10.02-3.25-10.02-3.26z" stroke="#5e5e5e" stroke-width=".05" fill="#5e5e5e"/><use xlink:href="#V" transform="matrix(1,0,0,1,7370.11889814461,1136.462594214918) translate(0 14.222222222222223)"/></g><g class="lucid-layer" lucid:layer-id="QA6aVJ9UkCsz" display="block"><path d="M7390.64 2051.16v349.02h374.76v-349.02z" stroke="#5e5e5e" stroke-width="3" fill-opacity="0"/><path d="M7624.86 2051.16c0 24.1-20.97 43.63-46.84 43.63-25.87 0-46.85-19.55-46.85-43.64M7765.4 2094.8h46.84m-468.45 0h46.84m374.76 87.24h46.84m-468.45 0h46.84m374.76 87.26h46.84m-468.45 0h46.84m374.76 87.25h46.84m-468.45 0h46.84" stroke="#5e5e5e" stroke-width="3" fill-opacity="0"/><use xlink:href="#W" transform="matrix(1,0,0,1,7343.794160853522,2138.4158326511624) translate(194.4074074074074 19.444444444444443)"/><use xlink:href="#X" transform="matrix(1,0,0,1,7414.0613647220935,2072.974332660037) translate(17.32716049382716 26.444444444444443)"/><use xlink:href="#Y" transform="matrix(1,0,0,1,7414.0613647220935,2160.229665981538) translate(17.32716049382716 26.444444444444443)"/><use xlink:href="#Z" transform="matrix(1,0,0,1,7414.0613647220935,2247.484999303039) translate(17.32716049382716 26.444444444444443)"/><use xlink:href="#aa" transform="matrix(1,0,0,1,7414.0613647220935,2334.74033262454) translate(17.32716049382716 26.444444444444443)"/><use xlink:href="#ab" transform="matrix(1,0,0,1,7695.130180196381,2334.74033262454) translate(17.32716049382716 26.444444444444443)"/><use xlink:href="#ac" transform="matrix(1,0,0,1,7695.130180196381,2247.484999303039) translate(17.32716049382716 26.444444444444443)"/><use xlink:href="#ad" transform="matrix(1,0,0,1,7695.130180196381,2160.229665981538) translate(17.32716049382716 26.444444444444443)"/><use xlink:href="#ae" transform="matrix(1,0,0,1,7695.130180196381,2072.974332660037) translate(17.32716049382716 26.444444444444443)"/><path d="M6756.22 2052.68v361.15h367.16v-361.15z" stroke="#5e5e5e" stroke-width="3" fill-opacity="0"/><path d="M6985.7 2052.68c0 24.93-20.55 45.14-45.9 45.14-25.35 0-45.9-20.2-45.9-45.14M7123.38 2097.82h45.9m-458.95 0h45.9m367.15 90.3h45.9m-458.95 0h45.9m367.15 90.28h45.9m-458.95 0h45.9m367.15 90.28h45.9m-458.95 0h45.9" stroke="#5e5e5e" stroke-width="3" fill-opacity="0"/><use xlink:href="#af" transform="matrix(1,0,0,1,6710.324770683977,2142.9647282324095) translate(182.64814814814815 19.444444444444443)"/><use xlink:href="#X" transform="matrix(1,0,0,1,6779.167399330409,2075.2487804506604) translate(16.82716049382716 27.444444444444443)"/><use xlink:href="#Y" transform="matrix(1,0,0,1,6779.167399330409,2165.5367108263263) translate(16.82716049382716 27.444444444444443)"/><use xlink:href="#Z" transform="matrix(1,0,0,1,6779.167399330409,2255.8246412019917) translate(16.82716049382716 27.444444444444443)"/><use xlink:href="#aa" transform="matrix(1,0,0,1,6779.167399330409,2346.1125715776575) translate(16.82716049382716 27.444444444444443)"/><use xlink:href="#ab" transform="matrix(1,0,0,1,7054.537913916141,2346.1125715776575) translate(16.82716049382716 27.444444444444443)"/><use xlink:href="#ac" transform="matrix(1,0,0,1,7054.537913916141,2255.8246412019917) translate(16.82716049382716 27.444444444444443)"/><use xlink:href="#ad" transform="matrix(1,0,0,1,7054.537913916141,2165.5367108263263) translate(16.82716049382716 27.444444444444443)"/><use xlink:href="#ae" transform="matrix(1,0,0,1,7054.537913916141,2075.2487804506604) translate(16.82716049382716 27.444444444444443)"/><path d="M6758.58 2060.75a6 6 0 0 1 6-6h349.53a6 6 0 0 1 6 6v347.18a6 6 0 0 1-6 6H6764.6a6 6 0 0 1-6-6z" stroke="#5e5e5e" stroke-width="3" fill="#fff"/><use xlink:href="#af" transform="matrix(1,0,0,1,6763.579739980639,2059.7470931070497) translate(129.14814814814815 17.77777777777778)"/><path d="M7391.07 2052.63a6 6 0 0 1 6-6h363.4a6 6 0 0 1 6 6v343.22a6 6 0 0 1-6 6h-363.4a6 6 0 0 1-6-6z" stroke="#5e5e5e" stroke-width="3" fill="#fff"/><use xlink:href="#W" transform="matrix(1,0,0,1,7396.069438063531,2051.631706362252) translate(142.9074074074074 17.77777777777778)"/></g><defs><path fill="#333" d="M96-169c-40 0-48 33-48 73s9 75 48 75c24 0 41-14 43-38l32 2c-6 37-31 61-74 61-59 0-76-41-82-99-10-93 101-131 147-64 4 7 5 14 7 22l-32 3c-4-21-16-35-41-35" id="ag"/><path fill="#333" d="M100-194c62-1 85 37 85 99 1 63-27 99-86 99S16-35 15-95c0-66 28-99 85-99zM99-20c44 1 53-31 53-75 0-43-8-75-51-75s-53 32-53 75 10 74 51 75" id="ah"/><path fill="#333" d="M117-194c89-4 53 116 60 194h-32v-121c0-31-8-49-39-48C34-167 62-67 57 0H25l-1-190h30c1 10-1 24 2 32 11-22 29-35 61-36" id="ai"/><path fill="#333" d="M85-194c31 0 48 13 60 33l-1-100h32l1 261h-30c-2-10 0-23-3-31C134-8 116 4 85 4 32 4 16-35 15-94c0-66 23-100 70-100zm9 24c-40 0-46 34-46 75 0 40 6 74 45 74 42 0 51-32 51-76 0-42-9-74-50-73" id="aj"/><path fill="#333" d="M106-169C34-169 62-67 57 0H25v-261h32l-1 103c12-21 28-36 61-36 89 0 53 116 60 194h-32v-121c2-32-8-49-39-48" id="ak"/><path fill="#333" d="M100-194c63 0 86 42 84 106H49c0 40 14 67 53 68 26 1 43-12 49-29l28 8c-11 28-37 45-77 45C44 4 14-33 15-96c1-61 26-98 85-98zm52 81c6-60-76-77-97-28-3 7-6 17-6 28h103" id="al"/><path fill="#333" d="M143 0L79-87 56-68V0H24v-261h32v163l83-92h37l-77 82L181 0h-38" id="am"/><g id="a"><use transform="matrix(0.018518518518518497,0,0,0.018518518518518497,0,0)" xlink:href="#ag"/><use transform="matrix(0.018518518518518497,0,0,0.018518518518518497,3.3333333333333295,0)" xlink:href="#ah"/><use transform="matrix(0.018518518518518497,0,0,0.018518518518518497,7.037037037037028,0)" xlink:href="#ai"/><use transform="matrix(0.018518518518518497,0,0,0.018518518518518497,10.740740740740728,0)" xlink:href="#aj"/><use transform="matrix(0.018518518518518497,0,0,0.018518518518518497,14.444444444444427,0)" xlink:href="#ag"/><use transform="matrix(0.018518518518518497,0,0,0.018518518518518497,17.777777777777757,0)" xlink:href="#ak"/><use transform="matrix(0.018518518518518497,0,0,0.018518518518518497,21.481481481481456,0)" xlink:href="#al"/><use transform="matrix(0.018518518518518497,0,0,0.018518518518518497,25.185185185185155,0)" xlink:href="#ag"/><use transform="matrix(0.018518518518518497,0,0,0.018518518518518497,28.518518518518484,0)" xlink:href="#am"/></g><path fill="#333" d="M27 0v-27h64v-190l-56 39v-29l58-41h29v221h61V0H27" id="an"/><use transform="matrix(0.018518518518518497,0,0,0.018518518518518497,0,0)" xlink:href="#an" id="b"/><path fill="#333" d="M101-251c82-7 93 87 43 132L82-64C71-53 59-42 53-27h129V0H18c2-99 128-94 128-182 0-28-16-43-45-43s-46 15-49 41l-32-3c6-41 34-60 81-64" id="ao"/><use transform="matrix(0.018518518518518497,0,0,0.018518518518518497,0,0)" xlink:href="#ao" id="c"/><path fill="#333" d="M126-127c33 6 58 20 58 59 0 88-139 92-164 29-3-8-5-16-6-25l32-3c6 27 21 44 54 44 32 0 52-15 52-46 0-38-36-46-79-43v-28c39 1 72-4 72-42 0-27-17-43-46-43-28 0-47 15-49 41l-32-3c6-42 35-63 81-64 48-1 79 21 79 65 0 36-21 52-52 59" id="ap"/><use transform="matrix(0.018518518518518497,0,0,0.018518518518518497,0,0)" xlink:href="#ap" id="d"/><path fill="#333" d="M155-56V0h-30v-56H8v-25l114-167h33v167h35v25h-35zm-30-156c-27 46-58 90-88 131h88v-131" id="aq"/><use transform="matrix(0.018518518518518497,0,0,0.018518518518518497,0,0)" xlink:href="#aq" id="e"/><path fill="#333" d="M54-142c48-35 137-8 131 61C196 18 31 33 14-55l32-4c7 23 22 37 52 37 35-1 51-22 54-58 4-55-73-65-99-34H22l8-134h141v27H59" id="ar"/><use transform="matrix(0.018518518518518497,0,0,0.018518518518518497,0,0)" xlink:href="#ar" id="f"/><path fill="#333" d="M110-160c48 1 74 30 74 79 0 53-28 85-80 85-65 0-83-55-86-122-5-90 50-162 133-122 14 7 22 21 27 39l-31 6c-5-40-67-38-82-6-9 19-15 44-15 74 11-20 30-34 60-33zm-7 138c34 0 49-23 49-58s-16-56-50-56c-29 0-50 16-49 49 1 36 15 65 50 65" id="as"/><use transform="matrix(0.018518518518518497,0,0,0.018518518518518497,0,0)" xlink:href="#as" id="g"/><path fill="#333" d="M64 0c3-98 48-159 88-221H18v-27h164v26C143-157 98-101 97 0H64" id="at"/><use transform="matrix(0.018518518518518497,0,0,0.018518518518518497,0,0)" xlink:href="#at" id="h"/><path fill="#333" d="M134-131c28 9 52 24 51 62-1 50-34 73-85 73S17-19 16-69c0-36 21-54 49-61-75-25-45-126 34-121 46 3 78 18 79 63 0 33-17 51-44 57zm-34-11c31 1 46-15 46-44 0-28-17-43-47-42-29 0-46 13-45 42 1 28 16 44 46 44zm1 122c35 0 51-18 51-52 0-30-18-46-53-46-33 0-51 17-51 47 0 34 19 51 53 51" id="au"/><use transform="matrix(0.018518518518518497,0,0,0.018518518518518497,0,0)" xlink:href="#au" id="i"/><g id="j"><use transform="matrix(0.06172839506172839,0,0,0.06172839506172839,0,0)" xlink:href="#ag"/><use transform="matrix(0.06172839506172839,0,0,0.06172839506172839,11.11111111111111,0)" xlink:href="#ah"/><use transform="matrix(0.06172839506172839,0,0,0.06172839506172839,23.45679012345679,0)" xlink:href="#ai"/><use transform="matrix(0.06172839506172839,0,0,0.06172839506172839,35.80246913580247,0)" xlink:href="#aj"/><use transform="matrix(0.06172839506172839,0,0,0.06172839506172839,48.148148148148145,0)" xlink:href="#ag"/><use transform="matrix(0.06172839506172839,0,0,0.06172839506172839,59.25925925925925,0)" xlink:href="#ak"/><use transform="matrix(0.06172839506172839,0,0,0.06172839506172839,71.60493827160494,0)" xlink:href="#al"/><use transform="matrix(0.06172839506172839,0,0,0.06172839506172839,83.95061728395062,0)" xlink:href="#ag"/><use transform="matrix(0.06172839506172839,0,0,0.06172839506172839,95.06172839506173,0)" xlink:href="#am"/></g><use transform="matrix(0.05555555555555554,0,0,0.05555555555555554,0,0)" xlink:href="#an" id="k"/><use transform="matrix(0.05555555555555554,0,0,0.05555555555555554,0,0)" xlink:href="#ao" id="l"/><use transform="matrix(0.05555555555555554,0,0,0.05555555555555554,0,0)" xlink:href="#ap" id="m"/><use transform="matrix(0.05555555555555554,0,0,0.05555555555555554,0,0)" xlink:href="#aq" id="n"/><use transform="matrix(0.05555555555555554,0,0,0.05555555555555554,0,0)" xlink:href="#ar" id="o"/><use transform="matrix(0.05555555555555554,0,0,0.05555555555555554,0,0)" xlink:href="#as" id="p"/><use transform="matrix(0.05555555555555554,0,0,0.05555555555555554,0,0)" xlink:href="#at" id="q"/><use transform="matrix(0.05555555555555554,0,0,0.05555555555555554,0,0)" xlink:href="#au" id="r"/><path fill="#333" d="M30-248c87 1 191-15 191 75 0 78-77 80-158 76V0H30v-248zm33 125c57 0 124 11 124-50 0-59-68-47-124-48v98" id="av"/><path fill="#333" d="M212-179c-10-28-35-45-73-45-59 0-87 40-87 99 0 60 29 101 89 101 43 0 62-24 78-52l27 14C228-24 195 4 139 4 59 4 22-46 18-125c-6-104 99-153 187-111 19 9 31 26 39 46" id="aw"/><path fill="#333" d="M33-154v-36h34v36H33zM33 0v-36h34V0H33" id="ax"/><g id="s"><use transform="matrix(0.04320987654320987,0,0,0.04320987654320987,0,0)" xlink:href="#av"/><use transform="matrix(0.04320987654320987,0,0,0.04320987654320987,10.370370370370368,0)" xlink:href="#aw"/><use transform="matrix(0.04320987654320987,0,0,0.04320987654320987,21.561728395061724,0)" xlink:href="#ax"/><use transform="matrix(0.04320987654320987,0,0,0.04320987654320987,25.88271604938271,0)" xlink:href="#ap"/><use transform="matrix(0.04320987654320987,0,0,0.04320987654320987,34.52469135802468,0)" xlink:href="#ao"/></g><path fill="#333" d="M33 0v-248h34V0H33" id="ay"/><path fill="#333" d="M135-143c-3-34-86-38-87 0 15 53 115 12 119 90S17 21 10-45l28-5c4 36 97 45 98 0-10-56-113-15-118-90-4-57 82-63 122-42 12 7 21 19 24 35" id="az"/><path fill="#333" d="M59-47c-2 24 18 29 38 22v24C64 9 27 4 27-40v-127H5v-23h24l9-43h21v43h35v23H59v120" id="aA"/><path fill="#333" d="M114-163C36-179 61-72 57 0H25l-1-190h30c1 12-1 29 2 39 6-27 23-49 58-41v29" id="aB"/><g id="t"><use transform="matrix(0.04320987654320987,0,0,0.04320987654320987,0,0)" xlink:href="#ay"/><use transform="matrix(0.04320987654320987,0,0,0.04320987654320987,4.320987654320986,0)" xlink:href="#ai"/><use transform="matrix(0.04320987654320987,0,0,0.04320987654320987,12.962962962962958,0)" xlink:href="#az"/><use transform="matrix(0.04320987654320987,0,0,0.04320987654320987,20.740740740740733,0)" xlink:href="#aA"/><use transform="matrix(0.04320987654320987,0,0,0.04320987654320987,25.061728395061724,0)" xlink:href="#aB"/><use transform="matrix(0.04320987654320987,0,0,0.04320987654320987,30.2037037037037,0)" xlink:href="#ax"/><use transform="matrix(0.04320987654320987,0,0,0.04320987654320987,34.52469135802468,0)" xlink:href="#ap"/><use transform="matrix(0.04320987654320987,0,0,0.04320987654320987,43.16666666666666,0)" xlink:href="#ao"/></g><path fill="#333" d="M30 0v-248h33v221h125V0H30" id="aC"/><path fill="#333" d="M194 0L95-120 63-95V0H30v-248h33v124l119-124h40L117-140 236 0h-42" id="aD"/><g id="u"><use transform="matrix(0.04320987654320987,0,0,0.04320987654320987,0,0)" xlink:href="#aw"/><use transform="matrix(0.04320987654320987,0,0,0.04320987654320987,11.191358024691356,0)" xlink:href="#aC"/><use transform="matrix(0.04320987654320987,0,0,0.04320987654320987,19.83333333333333,0)" xlink:href="#aD"/><use transform="matrix(0.04320987654320987,0,0,0.04320987654320987,30.2037037037037,0)" xlink:href="#ax"/><use transform="matrix(0.04320987654320987,0,0,0.04320987654320987,34.52469135802468,0)" xlink:href="#an"/></g><path fill="#333" d="M233-177c-1 41-23 64-60 70L243 0h-38l-65-103H63V0H30v-248c88 3 205-21 203 71zM63-129c60-2 137 13 137-47 0-61-80-42-137-45v92" id="aE"/><path fill="#333" d="M30 0v-248h187v28H63v79h144v27H63v87h162V0H30" id="aF"/><path fill="#333" d="M185-189c-5-48-123-54-124 2 14 75 158 14 163 119 3 78-121 87-175 55-17-10-28-26-33-46l33-7c5 56 141 63 141-1 0-78-155-14-162-118-5-82 145-84 179-34 5 7 8 16 11 25" id="aG"/><path fill="#333" d="M127-220V0H93v-220H8v-28h204v28h-85" id="aH"/><g id="v"><use transform="matrix(0.04320987654320987,0,0,0.04320987654320987,0,0)" xlink:href="#aE"/><use transform="matrix(0.04320987654320987,0,0,0.04320987654320987,11.191358024691356,0)" xlink:href="#aF"/><use transform="matrix(0.04320987654320987,0,0,0.04320987654320987,21.561728395061724,0)" xlink:href="#aG"/><use transform="matrix(0.04320987654320987,0,0,0.04320987654320987,31.932098765432098,0)" xlink:href="#aF"/><use transform="matrix(0.04320987654320987,0,0,0.04320987654320987,42.30246913580246,0)" xlink:href="#aH"/><use transform="matrix(0.04320987654320987,0,0,0.04320987654320987,50.037037037037024,0)" xlink:href="#ax"/><use transform="matrix(0.04320987654320987,0,0,0.04320987654320987,54.358024691358025,0)" xlink:href="#an"/></g><path fill="#333" d="M240 0l2-218c-23 76-54 145-80 218h-23L58-218 59 0H30v-248h44l77 211c21-75 51-140 76-211h43V0h-30" id="aI"/><path fill="#333" d="M210-169c-67 3-38 105-44 169h-31v-121c0-29-5-50-35-48C34-165 62-65 56 0H25l-1-190h30c1 10-1 24 2 32 10-44 99-50 107 0 11-21 27-35 58-36 85-2 47 119 55 194h-31v-121c0-29-5-49-35-48" id="aJ"/><path fill="#333" d="M266 0h-40l-56-210L115 0H75L2-248h35L96-30l15-64 43-154h32l59 218 59-218h35" id="aK"/><path fill="#333" d="M24-231v-30h32v30H24zM24 0v-190h32V0H24" id="aL"/><g id="w"><use transform="matrix(0.04320987654320987,0,0,0.04320987654320987,0,0)" xlink:href="#aI"/><use transform="matrix(0.04320987654320987,0,0,0.04320987654320987,12.91975308641975,0)" xlink:href="#al"/><use transform="matrix(0.04320987654320987,0,0,0.04320987654320987,21.56172839506172,0)" xlink:href="#aJ"/><use transform="matrix(0.04320987654320987,0,0,0.04320987654320987,34.48148148148147,0)" xlink:href="#aK"/><use transform="matrix(0.04320987654320987,0,0,0.04320987654320987,48.82716049382714,0)" xlink:href="#aB"/><use transform="matrix(0.04320987654320987,0,0,0.04320987654320987,53.96913580246911,0)" xlink:href="#aL"/><use transform="matrix(0.04320987654320987,0,0,0.04320987654320987,57.3827160493827,0)" xlink:href="#aA"/><use transform="matrix(0.04320987654320987,0,0,0.04320987654320987,61.70370370370369,0)" xlink:href="#al"/><use transform="matrix(0.04320987654320987,0,0,0.04320987654320987,70.34567901234566,0)" xlink:href="#ax"/><use transform="matrix(0.04320987654320987,0,0,0.04320987654320987,74.66666666666664,0)" xlink:href="#an"/></g><path fill="#333" d="M205 0l-28-72H64L36 0H1l101-248h38L239 0h-34zm-38-99l-47-123c-12 45-31 82-46 123h93" id="aM"/><path fill="#333" d="M24 0v-261h32V0H24" id="aN"/><path fill="#333" d="M84 4C-5 8 30-112 23-190h32v120c0 31 7 50 39 49 72-2 45-101 50-169h31l1 190h-30c-1-10 1-25-2-33-11 22-28 36-60 37" id="aO"/><g id="x"><use transform="matrix(0.04320987654320987,0,0,0.04320987654320987,0,0)" xlink:href="#aM"/><use transform="matrix(0.04320987654320987,0,0,0.04320987654320987,10.370370370370368,0)" xlink:href="#aN"/><use transform="matrix(0.04320987654320987,0,0,0.04320987654320987,13.783950617283947,0)" xlink:href="#aO"/><use transform="matrix(0.04320987654320987,0,0,0.04320987654320987,22.42592592592592,0)" xlink:href="#aE"/><use transform="matrix(0.04320987654320987,0,0,0.04320987654320987,33.61728395061728,0)" xlink:href="#al"/><use transform="matrix(0.04320987654320987,0,0,0.04320987654320987,42.25925925925925,0)" xlink:href="#az"/><use transform="matrix(0.04320987654320987,0,0,0.04320987654320987,50.037037037037024,0)" xlink:href="#aO"/><use transform="matrix(0.04320987654320987,0,0,0.04320987654320987,58.67901234567901,0)" xlink:href="#aN"/><use transform="matrix(0.04320987654320987,0,0,0.04320987654320987,62.09259259259259,0)" xlink:href="#aA"/><use transform="matrix(0.04320987654320987,0,0,0.04320987654320987,66.41358024691357,0)" xlink:href="#ax"/><use transform="matrix(0.04320987654320987,0,0,0.04320987654320987,70.73456790123456,0)" xlink:href="#ap"/><use transform="matrix(0.04320987654320987,0,0,0.04320987654320987,79.37654320987653,0)" xlink:href="#ao"/></g><path fill="#333" d="M30-248c118-7 216 8 213 122C240-48 200 0 122 0H30v-248zM63-27c89 8 146-16 146-99s-60-101-146-95v194" id="aP"/><path fill="#333" d="M141-36C126-15 110 5 73 4 37 3 15-17 15-53c-1-64 63-63 125-63 3-35-9-54-41-54-24 1-41 7-42 31l-33-3c5-37 33-52 76-52 45 0 72 20 72 64v82c-1 20 7 32 28 27v20c-31 9-61-2-59-35zM48-53c0 20 12 33 32 33 41-3 63-29 60-74-43 2-92-5-92 41" id="aQ"/><g id="y"><use transform="matrix(0.04320987654320987,0,0,0.04320987654320987,0,0)" xlink:href="#aK"/><use transform="matrix(0.04320987654320987,0,0,0.04320987654320987,14.345679012345675,0)" xlink:href="#aB"/><use transform="matrix(0.04320987654320987,0,0,0.04320987654320987,19.48765432098765,0)" xlink:href="#aL"/><use transform="matrix(0.04320987654320987,0,0,0.04320987654320987,22.90123456790123,0)" xlink:href="#aA"/><use transform="matrix(0.04320987654320987,0,0,0.04320987654320987,27.222222222222218,0)" xlink:href="#al"/><use transform="matrix(0.04320987654320987,0,0,0.04320987654320987,35.86419753086419,0)" xlink:href="#aP"/><use transform="matrix(0.04320987654320987,0,0,0.04320987654320987,47.05555555555554,0)" xlink:href="#aQ"/><use transform="matrix(0.04320987654320987,0,0,0.04320987654320987,55.69753086419752,0)" xlink:href="#aA"/><use transform="matrix(0.04320987654320987,0,0,0.04320987654320987,60.018518518518505,0)" xlink:href="#aQ"/><use transform="matrix(0.04320987654320987,0,0,0.04320987654320987,68.66049382716048,0)" xlink:href="#ax"/><use transform="matrix(0.04320987654320987,0,0,0.04320987654320987,72.98148148148147,0)" xlink:href="#ap"/><use transform="matrix(0.04320987654320987,0,0,0.04320987654320987,81.62345679012344,0)" xlink:href="#ao"/></g><g id="z"><use transform="matrix(0.04320987654320987,0,0,0.04320987654320987,0,0)" xlink:href="#aE"/><use transform="matrix(0.04320987654320987,0,0,0.04320987654320987,11.191358024691356,0)" xlink:href="#al"/><use transform="matrix(0.04320987654320987,0,0,0.04320987654320987,19.83333333333333,0)" xlink:href="#aQ"/><use transform="matrix(0.04320987654320987,0,0,0.04320987654320987,28.475308641975303,0)" xlink:href="#aj"/><use transform="matrix(0.04320987654320987,0,0,0.04320987654320987,37.11728395061728,0)" xlink:href="#aP"/><use transform="matrix(0.04320987654320987,0,0,0.04320987654320987,48.30864197530863,0)" xlink:href="#aQ"/><use transform="matrix(0.04320987654320987,0,0,0.04320987654320987,56.950617283950606,0)" xlink:href="#aA"/><use transform="matrix(0.04320987654320987,0,0,0.04320987654320987,61.271604938271594,0)" xlink:href="#aQ"/><use transform="matrix(0.04320987654320987,0,0,0.04320987654320987,69.91358024691357,0)" xlink:href="#ax"/><use transform="matrix(0.04320987654320987,0,0,0.04320987654320987,74.23456790123456,0)" xlink:href="#ap"/><use transform="matrix(0.04320987654320987,0,0,0.04320987654320987,82.87654320987653,0)" xlink:href="#ao"/></g><g id="A"><use transform="matrix(0.06172839506172839,0,0,0.06172839506172839,0,0)" xlink:href="#aM"/><use transform="matrix(0.06172839506172839,0,0,0.06172839506172839,14.814814814814813,0)" xlink:href="#aE"/><use transform="matrix(0.06172839506172839,0,0,0.06172839506172839,30.80246913580247,0)" xlink:href="#aI"/></g><path fill="#333" d="M67-125c0 53 21 87 73 88 37 1 54-22 65-47l45 17C233-25 199 4 140 4 58 4 20-42 15-125 8-235 124-281 211-232c18 10 29 29 36 50l-46 12c-8-25-30-41-62-41-52 0-71 34-72 86" id="aR"/><path fill="#333" d="M24 0v-248h52v208h133V0H24" id="aS"/><path fill="#333" d="M195 0l-88-114-31 24V0H24v-248h52v113l112-113h60L142-143 257 0h-62" id="aT"/><path fill="#333" d="M35-132v-50h50v50H35zM35 0v-49h50V0H35" id="aU"/><path fill="#333" d="M23 0v-37h61v-169l-59 37v-38l62-41h46v211h57V0H23" id="aV"/><g id="B"><use transform="matrix(0.04938271604938272,0,0,0.04938271604938272,0,0)" xlink:href="#aR"/><use transform="matrix(0.04938271604938272,0,0,0.04938271604938272,12.790123456790125,0)" xlink:href="#aS"/><use transform="matrix(0.04938271604938272,0,0,0.04938271604938272,23.60493827160494,0)" xlink:href="#aT"/><use transform="matrix(0.04938271604938272,0,0,0.04938271604938272,36.39506172839506,0)" xlink:href="#aU"/><use transform="matrix(0.04938271604938272,0,0,0.04938271604938272,42.27160493827161,0)" xlink:href="#aV"/></g><path fill="#333" d="M240-174c0 40-23 61-54 70L253 0h-59l-57-94H76V0H24v-248c93 4 217-23 216 74zM76-134c48-2 112 12 112-38 0-48-66-32-112-35v73" id="aW"/><path fill="#333" d="M24 0v-248h195v40H76v63h132v40H76v65h150V0H24" id="aX"/><path fill="#333" d="M169-182c-1-43-94-46-97-3 18 66 151 10 154 114 3 95-165 93-204 36-6-8-10-19-12-30l50-8c3 46 112 56 116 5-17-69-150-10-154-114-4-87 153-88 188-35 5 8 8 18 10 28" id="aY"/><path fill="#333" d="M136-208V0H84v-208H4v-40h212v40h-80" id="aZ"/><g id="C"><use transform="matrix(0.04938271604938272,0,0,0.04938271604938272,0,0)" xlink:href="#aW"/><use transform="matrix(0.04938271604938272,0,0,0.04938271604938272,12.790123456790125,0)" xlink:href="#aX"/><use transform="matrix(0.04938271604938272,0,0,0.04938271604938272,24.641975308641978,0)" xlink:href="#aY"/><use transform="matrix(0.04938271604938272,0,0,0.04938271604938272,36.49382716049383,0)" xlink:href="#aX"/><use transform="matrix(0.04938271604938272,0,0,0.04938271604938272,48.345679012345684,0)" xlink:href="#aZ"/><use transform="matrix(0.04938271604938272,0,0,0.04938271604938272,57.18518518518519,0)" xlink:href="#aU"/><use transform="matrix(0.04938271604938272,0,0,0.04938271604938272,63.061728395061735,0)" xlink:href="#aV"/></g><path fill="#333" d="M24 0v-248h52V0H24" id="ba"/><path fill="#333" d="M135-194c87-1 58 113 63 194h-50c-7-57 23-157-34-157-59 0-34 97-39 157H25l-1-190h47c2 12-1 28 3 38 12-26 28-41 61-42" id="bb"/><path fill="#333" d="M137-138c1-29-70-34-71-4 15 46 118 7 119 86 1 83-164 76-172 9l43-7c4 19 20 25 44 25 33 8 57-30 24-41C81-84 22-81 20-136c-2-80 154-74 161-7" id="bc"/><path fill="#333" d="M115-3C79 11 28 4 28-45v-112H4v-33h27l15-45h31v45h36v33H77v99c-1 23 16 31 38 25v30" id="bd"/><path fill="#333" d="M135-150c-39-12-60 13-60 57V0H25l-1-190h47c2 13-1 29 3 40 6-28 27-53 61-41v41" id="be"/><path fill="#333" d="M128-127c34 4 56 21 59 58 7 91-148 94-172 28-4-9-6-17-7-26l51-5c1 24 16 35 40 36 23 0 39-12 38-36-1-31-31-36-65-34v-40c32 2 59-3 59-33 0-20-13-33-34-33s-33 13-35 32l-50-3c6-44 37-68 86-68 50 0 83 20 83 66 0 35-22 52-53 58" id="bf"/><path fill="#333" d="M182-182c0 78-84 86-111 141h115V0H12c-6-101 99-100 120-180 1-22-12-31-33-32-23 0-32 14-35 34l-49-3c5-45 32-70 84-70 51 0 83 22 83 69" id="bg"/><g id="D"><use transform="matrix(0.04938271604938272,0,0,0.04938271604938272,0,0)" xlink:href="#ba"/><use transform="matrix(0.04938271604938272,0,0,0.04938271604938272,4.938271604938272,0)" xlink:href="#bb"/><use transform="matrix(0.04938271604938272,0,0,0.04938271604938272,15.753086419753087,0)" xlink:href="#bc"/><use transform="matrix(0.04938271604938272,0,0,0.04938271604938272,25.629629629629633,0)" xlink:href="#bd"/><use transform="matrix(0.04938271604938272,0,0,0.04938271604938272,31.506172839506174,0)" xlink:href="#be"/><use transform="matrix(0.04938271604938272,0,0,0.04938271604938272,38.41975308641976,0)" xlink:href="#aU"/><use transform="matrix(0.04938271604938272,0,0,0.04938271604938272,44.296296296296305,0)" xlink:href="#bf"/><use transform="matrix(0.04938271604938272,0,0,0.04938271604938272,54.17283950617284,0)" xlink:href="#bg"/></g><path fill="#333" d="M115-194c55 1 70 41 70 98S169 2 115 4C84 4 66-9 55-30l1 105H24l-1-265h31l2 30c10-21 28-34 59-34zm-8 174c40 0 45-34 45-75s-6-73-45-74c-42 0-51 32-51 76 0 43 10 73 51 73" id="bh"/><g id="E"><use transform="matrix(0.04938271604938272,0,0,0.04938271604938272,0,0)" xlink:href="#aj"/><use transform="matrix(0.04938271604938272,0,0,0.04938271604938272,9.876543209876544,0)" xlink:href="#aQ"/><use transform="matrix(0.04938271604938272,0,0,0.04938271604938272,19.75308641975309,0)" xlink:href="#aA"/><use transform="matrix(0.04938271604938272,0,0,0.04938271604938272,24.69135802469136,0)" xlink:href="#aQ"/><use transform="matrix(0.04938271604938272,0,0,0.04938271604938272,34.567901234567906,0)" xlink:href="#bh"/><use transform="matrix(0.04938271604938272,0,0,0.04938271604938272,44.44444444444445,0)" xlink:href="#aQ"/><use transform="matrix(0.04938271604938272,0,0,0.04938271604938272,54.320987654320994,0)" xlink:href="#aA"/><use transform="matrix(0.04938271604938272,0,0,0.04938271604938272,59.25925925925927,0)" xlink:href="#ak"/></g><use transform="matrix(0.04938271604938272,0,0,0.04938271604938272,0,0)" xlink:href="#an" id="F"/><use transform="matrix(0.04938271604938272,0,0,0.04938271604938272,0,0)" xlink:href="#ao" id="G"/><use transform="matrix(0.04938271604938272,0,0,0.04938271604938272,0,0)" xlink:href="#ap" id="H"/><use transform="matrix(0.04938271604938272,0,0,0.04938271604938272,0,0)" xlink:href="#aq" id="I"/><use transform="matrix(0.04938271604938272,0,0,0.04938271604938272,0,0)" xlink:href="#ar" id="J"/><use transform="matrix(0.04938271604938272,0,0,0.04938271604938272,0,0)" xlink:href="#as" id="K"/><use transform="matrix(0.04938271604938272,0,0,0.04938271604938272,0,0)" xlink:href="#at" id="L"/><use transform="matrix(0.04938271604938272,0,0,0.04938271604938272,0,0)" xlink:href="#au" id="M"/><path d="M99-251c64 0 84 50 84 122C183-37 130 33 47-8c-14-7-20-23-25-40l30-5c6 39 69 39 84 7 9-19 16-44 16-74-10 22-31 35-62 35-49 0-73-33-73-83 0-54 28-83 82-83zm-1 141c31-1 51-18 51-49 0-36-14-67-51-67-34 0-49 23-49 58 0 34 15 58 49 58" id="bi"/><use transform="matrix(0.04938271604938272,0,0,0.04938271604938272,0,0)" xlink:href="#bi" id="N"/><path d="M27 0v-27h64v-190l-56 39v-29l58-41h29v221h61V0H27" id="bj"/><path d="M101-251c68 0 85 55 85 127S166 4 100 4C33 4 14-52 14-124c0-73 17-127 87-127zm-1 229c47 0 54-49 54-102s-4-102-53-102c-51 0-55 48-55 102 0 53 5 102 54 102" id="bk"/><g id="O"><use transform="matrix(0.04938271604938272,0,0,0.04938271604938272,0,0)" xlink:href="#bj"/><use transform="matrix(0.04938271604938272,0,0,0.04938271604938272,9.876543209876544,0)" xlink:href="#bk"/></g><g id="P"><use transform="matrix(0.04938271604938272,0,0,0.04938271604938272,0,0)" xlink:href="#bj"/><use transform="matrix(0.04938271604938272,0,0,0.04938271604938272,8.54320987654321,0)" xlink:href="#bj"/></g><path d="M101-251c82-7 93 87 43 132L82-64C71-53 59-42 53-27h129V0H18c2-99 128-94 128-182 0-28-16-43-45-43s-46 15-49 41l-32-3c6-41 34-60 81-64" id="bl"/><g id="Q"><use transform="matrix(0.04938271604938272,0,0,0.04938271604938272,0,0)" xlink:href="#bj"/><use transform="matrix(0.04938271604938272,0,0,0.04938271604938272,9.876543209876544,0)" xlink:href="#bl"/></g><path d="M126-127c33 6 58 20 58 59 0 88-139 92-164 29-3-8-5-16-6-25l32-3c6 27 21 44 54 44 32 0 52-15 52-46 0-38-36-46-79-43v-28c39 1 72-4 72-42 0-27-17-43-46-43-28 0-47 15-49 41l-32-3c6-42 35-63 81-64 48-1 79 21 79 65 0 36-21 52-52 59" id="bm"/><g id="R"><use transform="matrix(0.04938271604938272,0,0,0.04938271604938272,0,0)" xlink:href="#bj"/><use transform="matrix(0.04938271604938272,0,0,0.04938271604938272,9.876543209876544,0)" xlink:href="#bm"/></g><path d="M155-56V0h-30v-56H8v-25l114-167h33v167h35v25h-35zm-30-156c-27 46-58 90-88 131h88v-131" id="bn"/><g id="S"><use transform="matrix(0.04938271604938272,0,0,0.04938271604938272,0,0)" xlink:href="#bj"/><use transform="matrix(0.04938271604938272,0,0,0.04938271604938272,9.876543209876544,0)" xlink:href="#bn"/></g><path d="M54-142c48-35 137-8 131 61C196 18 31 33 14-55l32-4c7 23 22 37 52 37 35-1 51-22 54-58 4-55-73-65-99-34H22l8-134h141v27H59" id="bo"/><g id="T"><use transform="matrix(0.04938271604938272,0,0,0.04938271604938272,0,0)" xlink:href="#bj"/><use transform="matrix(0.04938271604938272,0,0,0.04938271604938272,9.876543209876544,0)" xlink:href="#bo"/></g><g id="U"><use transform="matrix(0.04938271604938272,0,0,0.04938271604938272,0,0)" xlink:href="#aw"/><use transform="matrix(0.04938271604938272,0,0,0.04938271604938272,12.790123456790125,0)" xlink:href="#ah"/><use transform="matrix(0.04938271604938272,0,0,0.04938271604938272,22.66666666666667,0)" xlink:href="#ai"/><use transform="matrix(0.04938271604938272,0,0,0.04938271604938272,32.543209876543216,0)" xlink:href="#aA"/><use transform="matrix(0.04938271604938272,0,0,0.04938271604938272,37.48148148148149,0)" xlink:href="#aB"/><use transform="matrix(0.04938271604938272,0,0,0.04938271604938272,43.35802469135803,0)" xlink:href="#ah"/><use transform="matrix(0.04938271604938272,0,0,0.04938271604938272,53.23456790123457,0)" xlink:href="#aN"/><use transform="matrix(0.04938271604938272,0,0,0.04938271604938272,57.135802469135804,0)" xlink:href="#al"/><use transform="matrix(0.04938271604938272,0,0,0.04938271604938272,67.01234567901236,0)" xlink:href="#aB"/></g><path fill="#333" d="M199 0l-22-63H83L61 0H9l90-248h61L250 0h-51zm-33-102l-36-108c-10 38-24 72-36 108h72" id="bp"/><path fill="#333" d="M238-95c0 69-44 99-111 99C63 4 22-25 22-93v-155h51v151c-1 38 19 59 55 60 90 1 49-130 58-211h52v153" id="bq"/><path fill="#333" d="M76-208v77h127v40H76V0H24v-248h183v40H76" id="br"/><path fill="#333" d="M25 0v-261h50V0H25" id="bs"/><path fill="#333" d="M133-34C117-15 103 5 69 4 32 3 11-16 11-54c-1-60 55-63 116-61 1-26-3-47-28-47-18 1-26 9-28 27l-52-2c7-38 36-58 82-57s74 22 75 68l1 82c-1 14 12 18 25 15v27c-30 8-71 5-69-32zm-48 3c29 0 43-24 42-57-32 0-66-3-65 30 0 17 8 27 23 27" id="bt"/><path fill="#333" d="M195-6C206 82 75 100 31 46c-4-6-6-13-8-21l49-6c3 16 16 24 34 25 40 0 42-37 40-79-11 22-30 35-61 35-53 0-70-43-70-97 0-56 18-96 73-97 30 0 46 14 59 34l2-30h47zm-90-29c32 0 41-27 41-63 0-35-9-62-40-62-32 0-39 29-40 63 0 36 9 62 39 62" id="bu"/><path fill="#333" d="M165-50V0h-47v-50H5v-38l105-160h55v161h33v37h-33zm-47-37l2-116L46-87h72" id="bv"/><g id="V"><use transform="matrix(0.04938271604938272,0,0,0.04938271604938272,0,0)" xlink:href="#bp"/><use transform="matrix(0.04938271604938272,0,0,0.04938271604938272,12.790123456790125,0)" xlink:href="#aS"/><use transform="matrix(0.04938271604938272,0,0,0.04938271604938272,23.60493827160494,0)" xlink:href="#bq"/><use transform="matrix(0.04938271604938272,0,0,0.04938271604938272,36.39506172839506,0)" xlink:href="#br"/><use transform="matrix(0.04938271604938272,0,0,0.04938271604938272,47.20987654320988,0)" xlink:href="#bs"/><use transform="matrix(0.04938271604938272,0,0,0.04938271604938272,52.14814814814815,0)" xlink:href="#bt"/><use transform="matrix(0.04938271604938272,0,0,0.04938271604938272,62.0246913580247,0)" xlink:href="#bu"/><use transform="matrix(0.04938271604938272,0,0,0.04938271604938272,72.8395061728395,0)" xlink:href="#bc"/><use transform="matrix(0.04938271604938272,0,0,0.04938271604938272,82.71604938271605,0)" xlink:href="#aU"/><use transform="matrix(0.04938271604938272,0,0,0.04938271604938272,88.5925925925926,0)" xlink:href="#bv"/></g><g id="W"><use transform="matrix(0.06172839506172839,0,0,0.06172839506172839,0,0)" xlink:href="#aj"/><use transform="matrix(0.06172839506172839,0,0,0.06172839506172839,12.345679012345679,0)" xlink:href="#al"/><use transform="matrix(0.06172839506172839,0,0,0.06172839506172839,24.691358024691358,0)" xlink:href="#ag"/><use transform="matrix(0.06172839506172839,0,0,0.06172839506172839,35.80246913580247,0)" xlink:href="#ah"/><use transform="matrix(0.06172839506172839,0,0,0.06172839506172839,48.148148148148145,0)" xlink:href="#aj"/><use transform="matrix(0.06172839506172839,0,0,0.06172839506172839,60.49382716049382,0)" xlink:href="#al"/><use transform="matrix(0.06172839506172839,0,0,0.06172839506172839,72.8395061728395,0)" xlink:href="#aB"/></g><use transform="matrix(0.06172839506172839,0,0,0.06172839506172839,0,0)" xlink:href="#an" id="X"/><use transform="matrix(0.06172839506172839,0,0,0.06172839506172839,0,0)" xlink:href="#ao" id="Y"/><use transform="matrix(0.06172839506172839,0,0,0.06172839506172839,0,0)" xlink:href="#ap" id="Z"/><use transform="matrix(0.06172839506172839,0,0,0.06172839506172839,0,0)" xlink:href="#aq" id="aa"/><use transform="matrix(0.06172839506172839,0,0,0.06172839506172839,0,0)" xlink:href="#ar" id="ab"/><use transform="matrix(0.06172839506172839,0,0,0.06172839506172839,0,0)" xlink:href="#as" id="ac"/><use transform="matrix(0.06172839506172839,0,0,0.06172839506172839,0,0)" xlink:href="#at" id="ad"/><use transform="matrix(0.06172839506172839,0,0,0.06172839506172839,0,0)" xlink:href="#au" id="ae"/><path fill="#333" d="M177-190C167-65 218 103 67 71c-23-6-38-20-44-43l32-5c15 47 100 32 89-28v-30C133-14 115 1 83 1 29 1 15-40 15-95c0-56 16-97 71-98 29-1 48 16 59 35 1-10 0-23 2-32h30zM94-22c36 0 50-32 50-73 0-42-14-75-50-75-39 0-46 34-46 75s6 73 46 73" id="bw"/><g id="af"><use transform="matrix(0.06172839506172839,0,0,0.06172839506172839,0,0)" xlink:href="#ag"/><use transform="matrix(0.06172839506172839,0,0,0.06172839506172839,11.11111111111111,0)" xlink:href="#ah"/><use transform="matrix(0.06172839506172839,0,0,0.06172839506172839,23.45679012345679,0)" xlink:href="#ai"/><use transform="matrix(0.06172839506172839,0,0,0.06172839506172839,35.80246913580247,0)" xlink:href="#aj"/><use transform="matrix(0.06172839506172839,0,0,0.06172839506172839,48.148148148148145,0)" xlink:href="#aN"/><use transform="matrix(0.06172839506172839,0,0,0.06172839506172839,53.02469135802469,0)" xlink:href="#ah"/><use transform="matrix(0.06172839506172839,0,0,0.06172839506172839,65.37037037037037,0)" xlink:href="#bw"/><use transform="matrix(0.06172839506172839,0,0,0.06172839506172839,77.71604938271605,0)" xlink:href="#aL"/><use transform="matrix(0.06172839506172839,0,0,0.06172839506172839,82.5925925925926,0)" xlink:href="#ag"/></g></defs></g></svg>